<?xml version="1.0" encoding="utf-8"?>
<!-- Generator: Adobe Illustrator 27.5.0, SVG Export Plug-In . SVG Version: 6.00 Build 0)  -->
<svg version="1.1" id="Ñëîé_1" xmlns="http://www.w3.org/2000/svg" xmlns:xlink="http://www.w3.org/1999/xlink" x="0px" y="0px"
	 viewBox="0 0 2600 2000" style="enable-background:new 0 0 2600 2000;" xml:space="preserve">
<rect id="_x31_6" style="fill:#FFFFFF;" width="2600" height="2000"/>
<g>
	<g id="_x31_5">
		<path style="fill:#DCE6FF;" d="M344.639,1464.104c-4.537-12.37-9.027-25.188-13.343-38.097l10.638-2.815
			c4.288,12.825,8.748,25.56,13.256,37.847L344.639,1464.104z M2247.696,1448.128l-11.014-1.21
			c1.829-13.168,3.565-26.43,5.162-39.416l11.032,1.074C2251.274,1421.608,2249.531,1434.916,2247.696,1448.128z M319.043,1387.633
			c-3.884-12.758-7.651-25.752-11.197-38.623l10.779-2.35c3.525,12.794,7.269,25.711,11.13,38.392L319.043,1387.633z
			 M2257.42,1368.958l-11.048-0.929c1.404-13.221,2.704-26.52,3.865-39.527l11.063,0.78
			C2260.136,1342.339,2258.83,1355.688,2257.42,1368.958z M297.706,1310.159c-3.206-12.998-6.255-26.14-9.065-39.063l10.896-1.875
			c2.792,12.842,5.824,25.904,9.009,38.821L297.706,1310.159z M2264.485,1289.552l-11.076-0.624
			c0.939-13.212,1.764-26.539,2.448-39.609l11.086,0.46C2266.255,1262.904,2265.428,1276.286,2264.485,1289.552z M280.687,1231.84
			c-2.468-13.157-4.753-26.423-6.791-39.433l10.991-1.363c2.025,12.922,4.295,26.1,6.746,39.171L280.687,1231.84z M2268.637,1209.97
			l-11.094-0.287c0.433-13.27,0.731-26.611,0.887-39.653l11.098,0.104C2269.372,1183.237,2269.073,1196.639,2268.637,1209.97z
			 M268.327,1152.814c-1.655-13.289-3.095-26.654-4.281-39.724l11.062-0.795c1.178,12.973,2.607,26.24,4.249,39.432
			L268.327,1152.814z M2258.476,1130.375c-0.131-13.281-0.414-26.617-0.843-39.641l11.094-0.289
			c0.43,13.091,0.716,26.495,0.847,39.843L2258.476,1130.375z M261.136,1073.261c-0.736-13.367-1.224-26.787-1.451-39.889
			l11.097-0.153c0.224,12.992,0.709,26.301,1.438,39.559L261.136,1073.261z M2255.849,1051.129
			c-0.762-13.263-1.699-26.57-2.784-39.553l11.067-0.733c1.092,13.058,2.034,26.443,2.801,39.781L2255.849,1051.129z
			 M270.887,993.646l-11.096-0.203c0.309-13.403,0.905-26.827,1.772-39.899l11.079,0.581
			C271.783,967.071,271.193,980.368,270.887,993.646z M2249.215,972.101c-1.482-13.26-3.162-26.504-4.989-39.365l11.01-1.238
			c1.84,12.947,3.53,26.279,5.023,39.626L2249.215,972.101z M276.161,914.707l-11.043-0.987c1.508-13.352,3.345-26.698,5.463-39.666
			l10.983,1.419C279.47,888.299,277.652,901.499,276.161,914.707z M2238.013,893.522c-2.309-13.177-4.844-26.304-7.534-39.016
			l10.906-1.827c2.713,12.814,5.268,26.044,7.594,39.323L2238.013,893.522z M925.461,892.128
			c-15.421-2.163-26.576-8.409-42.027-19.194l7.015-7.651c13.536,9.424,23.313,15.077,36.195,17.027L925.461,892.128z
			 M963.965,868.636l-9.884-4.491c5.08-8.851,9.571-21.133,13.349-36.506l10.842,2.108
			C974.236,846.176,969.556,858.897,963.965,868.636z M850.862,844.616c-8.841-8.759-18.289-18.84-28.884-30.819l8.721-6.106
			c10.445,11.809,19.742,21.729,28.421,30.328L850.862,844.616z M288.977,836.518l-10.895-1.881
			c2.875-13.179,6.128-26.32,9.669-39.058l10.774,2.371C295.028,810.526,291.816,823.503,288.977,836.518z M2221.509,815.746
			c-3.286-13.041-6.832-25.969-10.537-38.426l10.73-2.526c3.741,12.577,7.319,25.629,10.635,38.793L2221.509,815.746z
			 M985.74,790.011l-11.007-1.26c1.704-11.786,3.232-24.692,4.67-39.457l11.057,0.853
			C989.008,765.049,987.465,778.088,985.74,790.011z M794.796,781.985c-9.021-10.839-18.378-22.297-26.441-32.185l8.984-5.798
			c8.047,9.869,17.385,21.303,26.376,32.107L794.796,781.985z M1607.315,781.173c-8.643,0-17.123-2.297-25.204-6.828l5.917-8.354
			c12.14,6.818,24.082,6.833,36.977,1.395l4.775,8.913C1622.156,779.534,1614.598,781.173,1607.315,781.173z M310.329,759.899
			l-10.613-2.887c4.41-12.829,9.247-25.589,14.379-37.924l10.408,3.427C319.446,734.673,314.677,747.251,310.329,759.899z
			 M1666.071,750.486l-8.154-6.698c8.415-8.108,17.435-18.11,27.577-30.577l8.991,5.79
			C1684.082,731.788,1674.788,742.087,1666.071,750.486z M1550.555,743.696c-7.182-9.857-14.3-21.466-21.759-35.489l10.031-4.224
			c7.247,13.623,14.129,24.856,21.041,34.342L1550.555,743.696z M2198.71,739.325c-4.47-12.793-9.241-25.387-14.179-37.431
			l10.426-3.384c4.999,12.193,9.827,24.939,14.351,37.884L2198.71,739.325z M742.054,717.61
			c-10.154-12.346-18.616-22.482-26.631-31.897l8.848-5.961c8.052,9.46,16.548,19.637,26.74,32.027L742.054,717.61z
			 M993.798,710.272l-11.075-0.638c0.841-11.568,1.697-24.57,2.617-39.75l11.082,0.531
			C995.501,685.631,994.642,698.667,993.798,710.272z M341.139,685.965l-10.153-3.987c6.092-12.276,12.585-24.331,19.483-36.119
			l9.841,4.565C353.522,662.023,347.135,673.885,341.139,685.965z M1719.91,685.963l-9.274-5.425
			c7.887-10.667,16.033-21.97,24.279-33.388l9.336,5.337C1735.986,663.935,1727.831,675.247,1719.91,685.963z M1510.931,671.361
			c-5.027-11.218-10.222-23.457-15.88-37.417l10.439-3.35c5.618,13.855,10.77,25.994,15.75,37.11L1510.931,671.361z
			 M2168.205,665.203c-5.967-12.365-12.278-24.377-18.76-35.701l9.891-4.48c6.59,11.515,13.005,23.723,19.067,36.285
			L2168.205,665.203z M688.022,654.426c-10.07-11.121-19.444-21.019-28.657-30.26l8.303-6.552
			c9.33,9.359,18.815,19.373,28.996,30.617L688.022,654.426z M998.731,630.586l-11.084-0.497c0.748-13.191,1.49-26.389,2.283-39.819
			l11.083,0.518C1000.221,604.21,999.478,617.401,998.731,630.586z M1768.584,619.14l-9.259-5.444
			c9.272-12.482,17.566-23.281,25.355-33.01l9.039,5.728C1786.006,596.048,1777.784,606.753,1768.584,619.14z M382.32,616.353
			l-9.354-5.314c8.721-12.151,17.713-23.126,26.726-32.619l8.478,6.371C399.474,593.951,390.777,604.57,382.32,616.353z
			 M1480.232,596.265c-5.09-13.269-10.083-26.546-14.296-37.784l10.528-3.124c4.208,11.222,9.193,24.478,14.272,37.719
			L1480.232,596.265z M628.851,595.574c-11.343-9.825-22.497-18.505-33.15-25.798l6.768-7.825
			c10.993,7.525,22.474,16.458,34.124,26.549L628.851,595.574z M2127.897,595.152c-7.952-11.545-16.29-22.464-24.782-32.454
			l8.851-5.956c8.71,10.246,17.254,21.433,25.394,33.251L2127.897,595.152z M439.299,557.928l-6.731-7.85
			c13.253-8.995,27.047-15.481,40.998-19.28l3.247,9.442C464.124,543.695,451.503,549.646,439.299,557.928z M1820.487,554.908
			l-8.622-6.217c10.408-11.425,20.27-21.257,30.151-30.056l7.851,6.978C1840.261,534.169,1830.651,543.751,1820.487,554.908z
			 M1003.499,551.026l-11.078-0.587c0.961-14.352,1.915-27.385,2.917-39.845l11.07,0.705
			C1005.409,523.718,1004.458,536.714,1003.499,551.026z M559.009,548.959c-13.849-6.131-27.47-10.045-40.486-11.631l1.507-9.783
			c14.214,1.733,28.992,5.963,43.924,12.574L559.009,548.959z M2074.565,532.998c-10.684-9.739-21.748-18.335-32.88-25.55
			l6.535-7.981c11.634,7.539,23.17,16.5,34.289,26.634L2074.565,532.998z M1451.779,520.699
			c-5.521-14.691-10.071-26.669-14.318-37.697l10.498-3.201c4.258,11.052,8.816,23.052,14.346,37.767L1451.779,520.699z
			 M1883.082,500.41l-6.361-8.09c13.649-8.495,27.435-14.787,40.976-18.7l3.427,9.391
			C1908.63,486.621,1895.83,492.475,1883.082,500.41z M2004.175,488.314c-13.745-5.158-27.659-8.35-41.353-9.489l1.031-9.831
			c14.826,1.232,29.843,4.671,44.634,10.222L2004.175,488.314z M1009.958,471.657l-11.055-0.874
			c1.383-13.853,2.888-27.233,4.472-39.766l11.029,1.104C1012.83,444.578,1011.333,457.88,1009.958,471.657z M1422.695,445.448
			c-5.363-13.317-10.416-25.491-15.45-37.215l10.368-3.523c5.062,11.789,10.141,24.025,15.53,37.408L1422.695,445.448z
			 M1020.055,392.75l-10.984-1.412c2.245-13.824,4.712-27.119,7.334-39.514l10.907,1.825
			C1024.719,365.908,1022.277,379.063,1020.055,392.75z M1390.757,371.366c-5.963-12.762-11.974-24.972-17.867-36.291l10.071-4.15
			c5.954,11.437,12.025,23.768,18.045,36.65L1390.757,371.366z M1036.735,315.011l-10.768-2.393
			c3.871-13.788,8.139-26.775,12.684-38.601l10.501,3.194C1044.708,288.775,1040.53,301.492,1036.735,315.011z M1353.181,299.64
			c-7.299-12.23-14.756-23.712-22.162-34.126l9.378-5.279c7.556,10.625,15.154,22.324,22.586,34.775L1353.181,299.64z
			 M1065.82,241.036l-9.952-4.37c7.287-13.136,15.368-24.751,24.019-34.523l8.718,6.11
			C1080.432,217.485,1072.766,228.515,1065.82,241.036z M1305.583,233.49c-9.697-10.815-19.706-20.396-29.749-28.476l7.445-7.324
			c10.486,8.437,20.91,18.41,30.98,29.642L1305.583,233.49z M1119.568,182.661l-5.983-8.316
			c13.147-7.486,27.632-12.354,43.052-14.467l1.69,9.758C1144.445,171.539,1131.404,175.921,1119.568,182.661z M1240.818,182.655
			c-12.928-6.201-26.395-10.44-40.026-12.599l1.946-9.721c14.795,2.344,29.379,6.93,43.347,13.629L1240.818,182.655z"/>
		<path style="fill:#D4E8FF;" d="M556.127,1522.984c0,0-270.297-623.797-75.782-762.701
			c130.015-92.844,267.824,111.826,432.308,3.551c146.438-96.395,99.885-389.669,333.432-430.205
			c262.583-45.576,320.399,501.419,535.889,426.654c261.483-90.723,521.589,93.446,296.809,763.892L556.127,1522.984z"/>
		<path style="fill:#EEF7FF;" d="M2318.03,1298.691c-92.096-13.376-77.068,107.473-208.345,107.473
			c-120.026,0-158.425-460.216-245.754-328.66c-447.701,674.435-187.729-286.815-543.779-299.031
			c-160.995-5.523-268.275,162.692-307.836,460.524c-57.346,269.251-190.338-205.362-327.202-161.234
			c-86.984,28.046-77.022,328.4-197.048,328.4c-131.277,0-116.248-120.849-208.345-107.473
			c-99.157,14.402-128.774,228.302-128.774,228.302h2295.855C2446.803,1526.993,2417.186,1313.093,2318.03,1298.691z"/>
		<path style="fill:#DCE6FF;" d="M2236.472,1429.505c-84.726-5.712-70.901,45.892-191.672,45.892
			c-110.421,0-107.387-115.652-181.279-140.231c-136.077-45.264-248.261,183.822-301.018,68.849
			c-100.199-305.075-392.436-458.068-527.256,0c-52.756,114.974-176.128-90.18-301.018-68.849
			c-76.875,13.13-70.858,140.231-181.279,140.231c-120.771,0-106.946-51.604-191.672-45.892
			c-91.222,6.15-118.469,97.488-118.469,97.488h2112.131C2354.941,1526.993,2327.694,1435.655,2236.472,1429.505z"/>
		<path style="fill:#CFDDF9;" d="M150.948,1526.993c0,0,0,105.365,120.754,148.115c88.023,31.163,558.606,60.453,428.452,99.802
			c-73.472,22.213,37.507,52.375,395.371,63.481c357.864,11.106,971.931-32.411,765.43-96.801
			c-206.502-64.389,637.097-80.665,585.848-214.598H150.948z"/>
	</g>
	<g id="_x31_4">
		
			<rect x="1730.54" y="829.581" transform="matrix(0.98 -0.1991 0.1991 0.98 -145.5804 409.1277)" style="fill:#2FAC66;" width="461.348" height="197.489"/>
		<path style="fill:#269E57;" d="M1754.634,1070.786l-39.326-193.534l452.108-91.868l39.326,193.534L1754.634,1070.786
			L1754.634,1070.786z M1740.194,1092.59l488.352-99.233l-46.691-229.778l-488.352,99.233L1740.194,1092.59L1740.194,1092.59z"/>
		
			<ellipse transform="matrix(0.5101 -0.8601 0.8601 0.5101 162.4308 2141.3528)" style="fill:#2FAC66;" cx="1961.025" cy="928.085" rx="72.035" ry="72.035"/>
		<path style="fill:#269E57;" d="M1877.131,945.132c25.875,110.11,186.814,77.544,167.787-34.097
			C2019.038,800.93,1858.11,833.487,1877.131,945.132z M1946.68,857.492c93.533-17.094,120.867,120.891,28.686,141.185
			C1881.836,1015.77,1854.501,877.786,1946.68,857.492z"/>
		<path style="fill:#269E57;" d="M1939.745,871.678l2.155,10.608c-16.651,6.785-25.557,19.195-22.88,32.365
			c3.329,16.384,21.136,20.187,39.841,21.848c16.931,1.662,19.951,5.508,20.671,9.055c0.621,3.059-1.201,5.572-2.841,7.14
			c-2.894,2.771-7.562,4.921-13.142,6.055c-8.803,1.789-18.335,1.586-26.151-0.559c-1.161-0.318-2.401-0.154-3.439,0.456
			c-1.038,0.61-1.785,1.613-2.073,2.782l-2.561,10.433c-0.564,2.299,0.766,4.638,3.031,5.33c7.107,2.167,17.611,2.603,27.717,1.245
			l2.063,10.154c0.491,2.413,2.844,3.973,5.259,3.482l11.803-2.399c2.414-0.49,3.973-2.844,3.482-5.258l-2.243-11.035
			c19.631-7.978,26.251-22.501,23.933-33.909c-3.624-17.838-21.369-21.966-38.231-23.647c-18.136-1.887-21.844-4.148-22.613-7.929
			c-0.793-3.906,3.195-8.822,13.893-10.996c11.554-2.347,19.418-0.683,22.777,0.027c2.318,0.491,4.615-0.917,5.23-3.205
			l2.778-10.329c0.317-1.175,0.138-2.43-0.493-3.47c-0.094-0.154-0.195-0.301-0.305-0.44c-0.634-0.808-1.531-1.377-2.545-1.602
			c-7.014-1.553-14.51-1.793-22.805-0.721l-1.955-9.618c-0.236-1.158-0.921-2.176-1.908-2.83c-0.986-0.653-2.191-0.887-3.35-0.652
			l-11.616,2.36C1940.813,866.909,1939.254,869.264,1939.745,871.678z"/>
		<path style="fill:#269E57;" d="M2140.48,891.62c3.027,14.894-6.594,29.421-21.488,32.448
			c-14.894,3.026-29.421-6.594-32.448-21.488c-3.026-14.894,6.594-29.421,21.488-32.448
			C2122.926,867.105,2137.454,876.726,2140.48,891.62z"/>
		<path style="fill:#269E57;" d="M1835.505,953.59c3.026,14.894-6.594,29.421-21.488,32.448
			c-14.894,3.026-29.421-6.594-32.448-21.488c-3.026-14.894,6.594-29.421,21.488-32.448
			C1817.951,929.076,1832.479,938.696,1835.505,953.59z"/>
	</g>
	<g id="_x31_3">
		
			<rect x="1699.882" y="646.441" transform="matrix(0.8837 -0.468 0.468 0.8837 -124.2878 990.0652)" style="fill:#2FAC66;" width="461.348" height="197.489"/>
		<path style="fill:#269E57;" d="M1680.489,765.868l407.714-215.895l92.419,174.531l-407.715,215.895L1680.489,765.868
			L1680.489,765.868z M1655.493,758.18l109.725,207.215l440.399-233.203l-109.725-207.215L1655.493,758.18L1655.493,758.18z"/>
		
			<ellipse transform="matrix(0.2374 -0.9714 0.9714 0.2374 748.3329 2443.6255)" style="fill:#2FAC66;" cx="1930.556" cy="745.186" rx="72.035" ry="72.035"/>
		<path style="fill:#269E57;" d="M1860.009,759.847c-17.816-92.476,119.962-122.089,141.093-29.32
			C2018.916,823.001,1881.141,852.613,1860.009,759.847L1860.009,759.847z M1846.721,762.613
			c25.996,109.971,187.755,76.214,167.669-34.859C1988.371,617.782,1826.648,651.547,1846.721,762.613L1846.721,762.613z"/>
		<path style="fill:#269E57;" d="M1906.531,685.517l-10.475,5.548c-2.177,1.152-3.01,3.854-1.854,6.029l5.066,9.566
			c-14.056,11.214-19.092,25.637-12.802,37.512c7.825,14.777,25.979,13.39,44.392,9.698c16.71-3.193,20.694-0.354,22.388,2.844
			c1.457,2.759,0.421,5.684-0.707,7.652c-1.993,3.476-5.863,6.856-10.895,9.521c-7.94,4.204-17.14,6.703-25.244,6.857
			c-1.203,0.022-2.346,0.531-3.169,1.408c-0.823,0.879-1.256,2.052-1.201,3.255l0.491,10.731c0.11,2.354,2.046,4.234,4.413,4.256
			c7.427,0.07,17.628-2.48,26.939-6.639l4.849,9.156c1.152,2.177,3.851,3.006,6.028,1.854l10.644-5.635
			c1.046-0.553,1.828-1.5,2.176-2.63c0.348-1.129,0.232-2.352-0.321-3.398l-5.269-9.951c13.625-10.852,17.568-23.459,15.514-33.318
			c-0.444-2.135-1.171-4.142-2.141-5.973c-8.518-16.087-26.705-15.03-43.355-11.879c-17.93,3.316-22.127,2.193-23.932-1.216
			c-0.828-1.568-0.748-3.546,0.224-5.579c1.05-2.2,3.637-5.528,9.996-8.894c10.417-5.517,18.432-6.144,21.855-6.412
			c2.362-0.184,4.167-2.183,4.11-4.552l-0.254-10.693c-0.029-1.215-0.554-2.368-1.454-3.19c-0.9-0.82-2.095-1.237-3.31-1.154
			c-7.166,0.493-14.424,2.381-22.079,5.753l-4.593-8.674c-0.553-1.044-1.499-1.828-2.63-2.175
			C1908.798,684.847,1907.575,684.963,1906.531,685.517z"/>
		<path style="fill:#269E57;" d="M2092.39,659.491c7.112,13.432,1.99,30.085-11.442,37.198c-13.431,7.113-30.085,1.99-37.198-11.442
			c-7.112-13.432-1.99-30.086,11.442-37.198C2068.624,640.937,2085.278,646.06,2092.39,659.491z"/>
		<path style="fill:#269E57;" d="M1817.361,805.125c7.112,13.432,1.99,30.086-11.442,37.198
			c-13.431,7.112-30.085,1.99-37.198-11.442c-7.113-13.432-1.99-30.085,11.442-37.198
			C1793.595,786.571,1810.249,791.694,1817.361,805.125z"/>
	</g>
	<g id="_x31_2">
		
			<rect x="1534.663" y="549.12" transform="matrix(0.6171 -0.7869 0.7869 0.6171 166.1587 1637.1934)" style="fill:#2FAC66;" width="461.348" height="197.489"/>
		<path style="fill:#269E57;" d="M1545.288,768.444l284.695-363.029l155.402,121.87L1700.69,890.314L1545.288,768.444
			L1545.288,768.444z M1519.326,771.584l184.504,144.693l307.518-392.132l-184.504-144.693L1519.326,771.584L1519.326,771.584z"/>
		
			<ellipse transform="matrix(0.1158 -0.9933 0.9933 0.1158 917.4179 2326.3088)" style="fill:#2FAC66;" cx="1765.337" cy="647.864" rx="72.035" ry="72.035"/>
		<path style="fill:#269E57;" d="M1719.165,703.157c-71.609-61.814,18.564-170.074,92.347-110.583
			C1883.117,654.389,1792.946,762.645,1719.165,703.157L1719.165,703.157z M1710.467,713.577
			c89.067,69.915,194.391-56.318,109.736-131.43C1731.132,512.242,1625.823,638.469,1710.467,713.577L1710.467,713.577z"/>
		<path style="fill:#269E57;" d="M1711.811,612.448c-0.73,0.931-1.061,2.113-0.919,3.287c0.142,1.174,0.739,2.239,1.676,2.974
			l8.519,6.68c-8.131,15.674-7.06,30.634,2.996,39.021c0.183,0.153,0.371,0.305,0.562,0.455c13.159,10.319,29.18,1.669,44.5-9.191
			c13.969-9.711,18.762-8.737,21.609-6.505c2.479,1.911,2.697,5.021,2.466,7.277c-0.408,3.987-2.568,8.649-6.082,13.13
			c-5.543,7.068-12.932,13.093-20.274,16.528c-1.09,0.51-1.928,1.439-2.323,2.576c-0.395,1.137-0.314,2.385,0.226,3.461l4.812,9.605
			c1.059,2.117,3.59,3.037,5.763,2.094c6.816-2.958,15.097-9.435,21.911-17.02l8.154,6.394c1.938,1.52,4.741,1.181,6.261-0.758
			l7.432-9.477c1.52-1.939,1.162-4.775-0.757-6.261l-8.861-6.949c9.594-18.448,5.563-33.573-3.247-40.921
			c-0.168-0.14-0.339-0.278-0.51-0.413c-14.325-11.234-30.511-2.873-44.439,6.777c-15.034,10.321-19.325,11.001-22.359,8.622
			c-1.36-1.038-2.127-2.933-2.064-5.188c0.066-2.437,1.076-6.529,5.516-12.191c7.275-9.277,14.342-13.107,17.359-14.744
			c2.083-1.129,2.919-3.69,1.904-5.83l-4.58-9.665c-0.521-1.1-1.47-1.94-2.625-2.323c-1.156-0.383-2.418-0.279-3.493,0.292
			c-6.347,3.364-12.211,8.041-17.833,14.234l-7.723-6.057c-1.938-1.52-4.742-1.181-6.261,0.758L1711.811,612.448z"/>
		
			<ellipse transform="matrix(0.9961 -0.0879 0.0879 0.9961 -38.9791 165.6437)" style="fill:#269E57;" cx="1861.359" cy="525.422" rx="27.519" ry="27.519"/>
		
			<ellipse transform="matrix(0.2692 -0.9631 0.9631 0.2692 478.0868 2170.6501)" style="fill:#269E57;" cx="1669.315" cy="770.307" rx="27.519" ry="27.519"/>
	</g>
	<g id="_x31_1">
		
			<rect x="377.008" y="1282.094" transform="matrix(0.9405 0.3397 -0.3397 0.9405 506.689 -126.637)" style="fill:#2FAC66;" width="476.132" height="203.818"/>
		<path style="fill:#269E57;" d="M356.51,1398.672l69.233-191.699l447.822,161.732l-69.233,191.699L356.51,1398.672L356.51,1398.672
			z M332.077,1410.14l483.722,174.698l82.198-227.599L414.275,1182.54L332.077,1410.14L332.077,1410.14z"/>
		
			<ellipse transform="matrix(0.7071 -0.7071 0.7071 0.7071 -798.2756 840.1699)" style="fill:#2FAC66;" cx="615.037" cy="1383.689" rx="74.343" ry="74.343"/>
		<path style="fill:#269E57;" d="M531.938,1353.678c-36.304,110.945,123.036,168.639,166.198,60.021
			C734.433,1302.754,575.107,1245.059,531.938,1353.678z M640.29,1313.766c91.62,35.145,41.638,171.444-50.509,139.845
			C498.164,1418.466,548.146,1282.168,640.29,1313.766z"/>
		<path style="fill:#269E57;" d="M626.561,1322.546l-3.795,10.507c-18.319-2.958-32.831,3.199-37.542,16.245
			c-5.862,16.228,7.793,29.14,23.389,40.646c14.032,10.554,14.628,15.566,13.359,19.078c-1.094,3.03-4.05,4.266-6.337,4.769
			c-4.039,0.888-9.307,0.278-14.835-1.718c-8.72-3.149-17.013-8.445-22.751-14.531c-0.853-0.904-2.034-1.425-3.276-1.444
			c-1.242-0.02-2.44,0.464-3.32,1.339l-7.858,7.821c-1.731,1.724-1.815,4.5-0.19,6.325c5.101,5.726,14.126,11.749,23.763,15.977
			l-3.632,10.057c-0.863,2.391,0.374,5.029,2.766,5.892l11.691,4.222c2.391,0.864,5.029-0.374,5.892-2.766l3.948-10.931
			c21.586,3.507,35.218-5.74,39.299-17.04c6.382-17.669-7.043-30.833-21.004-41.367c-14.973-11.399-17.027-15.383-15.675-19.128
			c1.398-3.869,7.552-6.061,18.149-2.234c11.445,4.134,17.483,9.823,20.061,12.251c1.78,1.677,4.56,1.669,6.33-0.017l7.993-7.613
			c0.91-0.866,1.426-2.067,1.428-3.323c0-0.186-0.01-0.37-0.032-0.552c-0.125-1.053-0.611-2.036-1.383-2.778
			c-5.349-5.135-11.827-9.37-19.714-12.878l3.44-9.527c0.414-1.148,0.356-2.413-0.162-3.519c-0.518-1.105-1.455-1.958-2.603-2.373
			l-11.505-4.155C630.063,1318.917,627.425,1320.155,626.561,1322.546z"/>
		<path style="fill:#269E57;" d="M792.791,1447.885c-5.328,14.753-21.607,22.393-36.359,17.065
			c-14.753-5.328-22.393-21.607-17.065-36.359c5.328-14.753,21.607-22.393,36.359-17.065
			C790.479,1416.854,798.119,1433.132,792.791,1447.885z"/>
		<path style="fill:#269E57;" d="M490.707,1338.787c-5.328,14.753-21.607,22.393-36.359,17.065
			c-14.753-5.328-22.393-21.607-17.065-36.359c5.328-14.753,21.607-22.393,36.359-17.065
			C488.395,1307.755,496.036,1324.034,490.707,1338.787z"/>
	</g>
	<g id="_x31_0_1_">
		
			<rect x="394.195" y="1066.199" transform="matrix(0.8064 0.5914 -0.5914 0.8064 813.2811 -147.7425)" style="fill:#2FAC66;" width="476.132" height="203.818"/>
		<path style="fill:#269E57;" d="M500.566,945.134L884.5,1226.731l-120.543,164.351l-383.934-281.597L500.566,945.134
			L500.566,945.134z M496.464,918.458l-143.118,195.129l414.712,304.171l143.118-195.129L496.464,918.458L496.464,918.458z"/>
		
			<ellipse transform="matrix(0.9903 -0.1388 0.1388 0.9903 -155.9919 99.0488)" style="fill:#2FAC66;" cx="632.261" cy="1168.108" rx="74.344" ry="74.343"/>
		<path style="fill:#269E57;" d="M586.91,1109.175c77.883-58.146,167.364,56.51,90.7,117.867
			C599.728,1285.185,510.249,1170.531,586.91,1109.175L586.91,1109.175z M578.363,1098.076
			c-90.454,73.614,13.663,208.681,107.8,140.061C776.608,1164.502,672.5,1029.472,578.363,1098.076L578.363,1098.076z"/>
		<path style="fill:#269E57;" d="M676.878,1118.952l-9.865-7.234c-2.049-1.503-4.934-1.063-6.434,0.99l-6.607,9.009
			c-16.739-8.012-32.401-6.202-40.601,4.982c-10.206,13.916-0.752,30.154,10.96,45.597c10.482,14.085,9.637,19.063,7.429,22.074
			c-1.907,2.595-5.09,2.948-7.426,2.785c-4.125-0.288-9.006-2.362-13.745-5.837c-7.476-5.484-13.936-12.906-17.724-20.364
			c-0.562-1.108-1.548-1.941-2.734-2.311c-1.187-0.369-2.472-0.244-3.563,0.348l-9.747,5.283c-2.137,1.161-3.012,3.805-1.968,6.014
			c3.276,6.931,10.233,15.258,18.284,22.036l-6.324,8.623c-1.503,2.049-1.06,4.929,0.989,6.433l10.022,7.352
			c0.984,0.723,2.216,1.024,3.422,0.838c1.206-0.185,2.289-0.842,3.012-1.827l6.873-9.371c16.208,7.774,29.693,5.766,37.926-0.576
			c1.783-1.373,3.32-2.951,4.585-4.675c11.111-15.148,1.948-31.566-8.468-45.614c-11.146-15.163-11.99-19.566-9.636-22.776
			c1.084-1.474,2.957-2.29,5.283-2.301c2.516-0.014,6.77,0.892,12.758,5.284c9.81,7.194,13.998,14.357,15.786,17.416
			c1.234,2.111,3.902,2.889,6.078,1.77l9.818-5.046c1.115-0.574,1.951-1.58,2.309-2.785c0.357-1.205,0.206-2.503-0.418-3.594
			c-3.681-6.434-8.7-12.327-15.276-17.921l5.99-8.168c0.721-0.984,1.023-2.215,0.837-3.421
			C678.521,1120.757,677.863,1119.673,676.878,1118.952z"/>
		<path style="fill:#269E57;" d="M784.656,1279.882c-9.277,12.648-27.05,15.381-39.698,6.104
			c-12.648-9.277-15.381-27.05-6.104-39.698c9.277-12.648,27.05-15.381,39.698-6.104
			C791.2,1249.461,793.933,1267.234,784.656,1279.882z"/>
		<path style="fill:#269E57;" d="M525.669,1089.928c-9.277,12.648-27.05,15.381-39.698,6.104
			c-12.648-9.277-15.381-27.05-6.104-39.698c9.277-12.648,27.05-15.381,39.698-6.104
			C532.213,1059.506,534.946,1077.28,525.669,1089.928z"/>
	</g>
	<g id="_x39_">
		<rect x="833.46" y="834.749" style="fill:#D4E8FF;" width="259.807" height="783.174"/>
		<rect x="1245.081" y="708.841" style="fill:#D4E8FF;" width="198.842" height="909.082"/>
		<polygon style="fill:#A2C0FC;" points="1907.982,1617.933 1442.754,1617.933 1442.754,973.548 1907.972,973.557 		"/>
		<polygon style="fill:#3A5C99;" points="661.83,973.549 1032.271,612.438 1087.786,612.438 717.345,973.549 		"/>
		<polygon style="fill:#B0C8FF;" points="1087.786,612.438 717.345,973.549 716.321,973.549 716.321,1617.927 1446.293,1617.927 
			1446.293,973.549 1458.228,973.549 		"/>
		<ellipse style="fill:#4867AA;" cx="1078.192" cy="955.654" rx="101.927" ry="102.303"/>
		<ellipse style="fill:#D4E8FF;" cx="1078.192" cy="955.654" rx="90.361" ry="90.695"/>
		
			<rect x="1185.209" y="1107.242" transform="matrix(-1.836970e-16 1 -1 -1.836970e-16 2507.2722 -99.5651)" style="fill:#4867AA;" width="236.42" height="193.223"/>
		<rect x="1218.373" y="1097.252" style="fill:#D4E8FF;" width="170.09" height="213.203"/>
		
			<rect x="1557.527" y="1107.243" transform="matrix(-1.836970e-16 1 -1 -1.836970e-16 2879.5908 -471.8838)" style="fill:#4867AA;" width="236.42" height="193.222"/>
		<rect x="1590.692" y="1097.252" style="fill:#D4E8FF;" width="170.09" height="213.203"/>
		
			<rect x="750.592" y="1107.242" transform="matrix(-1.836970e-16 1 -1 -1.836970e-16 2072.6555 335.0514)" style="fill:#4867AA;" width="236.42" height="193.222"/>
		<rect x="783.757" y="1097.252" style="fill:#D4E8FF;" width="170.09" height="213.203"/>
		<rect x="1669.943" y="1092.07" style="fill:#4867AA;" width="11.588" height="224.307"/>
		<rect x="1586.854" y="1198.43" style="fill:#4867AA;" width="173.929" height="11.588"/>
		<polygon style="fill:#3A5C99;" points="1907.982,1617.933 1442.751,1617.929 1442.751,1514.17 1907.969,1514.17 		"/>
		<rect x="715.081" y="1514.174" style="fill:#4867AA;" width="731.212" height="103.752"/>
		<path style="fill:#3A5C99;" d="M1379.583,973.554c-96.661-94.23-261.246-254.661-358.884-349.843l11.567-11.279h527.156
			c106.177,102.817,242.205,234.533,348.546,337.507v23.605L1379.583,973.554z"/>
		<path style="fill:#4867AA;" d="M1430.742,973.554l-46.394-17.898l-123.474-120.371
			c-31.716-30.906-198.048-193.067-228.598-222.843h-0.01v-0.01h550.291c105.017,101.66,248.808,240.729,353.497,343.198
			l-0.061,17.914L1430.742,973.554z"/>
		<polygon style="fill:#527FBF;" points="1324.04,612.438 1324.04,535.97 1414.401,535.97 1414.401,700.523 		"/>
		<rect x="1414.401" y="535.97" style="fill:#3A5C99;" width="82.428" height="164.553"/>
		<rect x="1309.907" y="530.166" style="fill:#4867AA;" width="201.056" height="25.786"/>
		<polygon style="fill:#3A5C99;" points="1379.583,973.554 1361.223,955.655 1936.054,955.63 1936.054,973.544 		"/>
		<polygon style="fill:#4867AA;" points="958.621,1210.018 958.621,1198.43 874.596,1198.43 874.596,1092.07 863.009,1092.07 
			863.009,1198.43 777.9,1198.43 777.9,1210.018 863.009,1210.018 863.009,1310.583 743.203,1310.583 743.203,1322.171 
			958.621,1322.171 958.621,1310.583 874.596,1310.583 874.596,1210.018 		"/>
		<polygon style="fill:#4867AA;" points="1394.321,1210.018 1394.321,1198.43 1309.212,1198.43 1309.212,1092.07 1297.625,1092.07 
			1297.625,1198.43 1213.599,1198.43 1213.599,1210.018 1297.625,1210.018 1297.625,1310.583 1178.902,1310.583 1178.902,1322.171 
			1394.321,1322.171 1394.321,1310.583 1309.212,1310.583 1309.212,1210.018 		"/>
		<rect x="1586.854" y="1310.583" style="fill:#4867AA;" width="213.646" height="11.588"/>
		<polygon style="fill:#4867AA;" points="1048.46,650.773 1032.266,634.991 684.961,973.549 715.081,973.549 715.081,1540.457 
			737.627,1540.457 737.627,953.778 		"/>
		<rect x="1434.358" y="973.549" style="fill:#4867AA;" width="23.87" height="540.626"/>
		<polygon style="fill:#4867AA;" points="1907.972,973.557 1907.972,1514.173 1884.857,1514.173 1884.857,973.548 		"/>
		<polygon style="fill:#4867AA;" points="1173.536,949.861 1083.985,949.861 1083.985,859.032 1072.398,859.032 1072.398,949.861 
			982.206,949.861 982.206,961.448 1072.398,961.448 1072.398,1049.313 1083.985,1049.313 1083.985,961.448 1173.536,961.448 		"/>
		
			<rect x="867.303" y="1316.576" transform="matrix(-1.836970e-16 1 -1 -1.836970e-16 2485.2261 328.843)" style="fill:#3A5C99;" width="421.776" height="180.918"/>
		<rect x="1010.864" y="1219.364" style="fill:#4867AA;" width="134.655" height="398.569"/>
		<path style="fill:#3A5C99;" d="M1040.492,1407.035c0,5.4-4.377,9.777-9.777,9.777c-5.4,0-9.777-4.377-9.777-9.777
			c0-5.4,4.377-9.777,9.777-9.777C1036.115,1397.258,1040.492,1401.635,1040.492,1407.035z"/>
	</g>
	<g id="_x38_">
		<path style="fill:#EB5648;" d="M1911.969,1285.313c-8.376-0.064-19.054-2.903-29.598-7.125
			c-12.974-5.191-25.747-12.479-33.791-19.288c0,0-0.393-1.345-1.08-3.697c-3.535-12.06-14.804-50.019-20.349-68.961
			c0,0,20.349,5.149,48.133,24.344c18.659,12.891,29.761,17.103,42.256,19.647C1917.54,1230.231,1923.539,1251.24,1911.969,1285.313
			z"/>
		<path style="fill:#CE3932;" d="M1882.371,1278.187c-12.974-5.191-25.747-12.479-33.791-19.288c0,0-0.393-1.345-1.08-3.697
			l4.512-30.094c0,0,12.142,22.994,16.552,33.791C1871.39,1265.815,1877.991,1273.534,1882.371,1278.187z"/>
		<path style="fill:#662948;" d="M1797.936,1101.913c0,0-5.975-3.306-9.56,1.999c-3.585,5.306,0.452,8.913-4.01,13.582
			s-7.223,5.518-5.948,9.975c1.275,4.457,4.696,4.949,3.197,10.539c0,0,16.78-16.057,19.007-26.031
			C1802.848,1102.002,1797.936,1101.913,1797.936,1101.913z"/>
		<path style="fill:#F99370;" d="M1728.893,1665.552l55.97,0.095c-2.348-16.039,0.332-51.679,0.332-70.467l-33.656,2.834
			l9.719,40.194c0.605,4.874-2.314,9.511-6.984,11.042c-10.356,3.953-22.245,1.969-28.861,10.169
			C1723.755,1662.09,1725.747,1665.546,1728.893,1665.552z"/>
		<path style="fill:#103663;" d="M1786.571,1660.271c-0.231,1.889-0.756,3.723-1.707,5.376l-56.485-0.096
			c-2.744-0.005-4.706-2.709-3.792-5.293c0.011-0.031,0.022-0.062,0.033-0.093c2.116-5.916,9.656-14.748,35.604-16.03
			c0,0,9.127,2.102,23.689-0.506C1783.911,1643.63,1787.518,1652.614,1786.571,1660.271z"/>
		<path style="fill:#E8C0A6;" d="M1741.087,1658.287c-0.399-0.049-0.76-0.308-0.922-0.707c-2.083-5.156-5.906-6.718-5.944-6.733
			c-0.588-0.232-0.876-0.896-0.642-1.483c0.23-0.587,0.893-0.885,1.483-0.642c0.194,0.077,4.775,1.946,7.223,8
			c0.236,0.586-0.046,1.253-0.631,1.49C1741.467,1658.287,1741.272,1658.31,1741.087,1658.287z"/>
		<path style="fill:#E8C0A6;" d="M1749.975,1657.23c-0.432-0.053-0.816-0.355-0.952-0.8c-1.82-5.91-6.965-8.645-7.017-8.673
			c-0.559-0.292-0.778-0.982-0.486-1.543c0.292-0.561,0.979-0.778,1.543-0.486c0.245,0.129,6.047,3.215,8.146,10.03
			c0.185,0.602-0.153,1.243-0.757,1.428C1750.292,1657.236,1750.13,1657.25,1749.975,1657.23z"/>
		<path style="fill:#E8C0A6;" d="M1760.093,1656.005c-0.418-0.052-0.792-0.335-0.94-0.762c-2.127-6.135-7.056-9.485-7.105-9.517
			c-0.525-0.351-0.668-1.06-0.317-1.585c0.349-0.526,1.055-0.67,1.582-0.319c0.229,0.151,5.612,3.783,8,10.673
			c0.207,0.596-0.108,1.248-0.706,1.454C1760.436,1656.008,1760.262,1656.026,1760.093,1656.005z"/>
		<path style="fill:#0F2E54;" d="M1724.619,1660.165l61.952,0.105c-0.231,1.889-0.756,3.723-1.707,5.376l-56.485-0.096
			c-2.744-0.005-4.706-2.709-3.792-5.293C1724.597,1660.227,1724.608,1660.196,1724.619,1660.165z"/>
		<path style="fill:#F99370;" d="M1808.269,1665.552l55.97,0.095c-2.348-16.039,0.331-51.679,0.331-70.467l-33.656,2.834
			l9.719,40.194c0.605,4.874-2.313,9.511-6.984,11.042c-10.356,3.953-22.245,1.969-28.861,10.169
			C1803.131,1662.09,1805.123,1665.546,1808.269,1665.552z"/>
		<path style="fill:#103663;" d="M1865.946,1660.271c-0.231,1.889-0.756,3.723-1.707,5.376l-56.485-0.096
			c-2.744-0.005-4.706-2.709-3.792-5.293c0.011-0.031,0.022-0.062,0.033-0.093c2.116-5.916,9.656-14.748,35.604-16.03
			c0,0,9.128,2.102,23.689-0.506C1863.287,1643.63,1866.894,1652.614,1865.946,1660.271z"/>
		<path style="fill:#E8C0A6;" d="M1820.462,1658.287c-0.399-0.049-0.76-0.308-0.922-0.707c-2.083-5.156-5.906-6.718-5.944-6.733
			c-0.587-0.232-0.876-0.896-0.642-1.483c0.23-0.587,0.893-0.885,1.483-0.642c0.194,0.077,4.775,1.946,7.223,8
			c0.237,0.586-0.046,1.253-0.631,1.49C1820.843,1658.287,1820.647,1658.31,1820.462,1658.287z"/>
		<path style="fill:#E8C0A6;" d="M1829.35,1657.23c-0.432-0.053-0.816-0.355-0.952-0.8c-1.82-5.91-6.965-8.645-7.018-8.673
			c-0.559-0.292-0.777-0.982-0.485-1.543c0.292-0.561,0.978-0.778,1.542-0.486c0.246,0.129,6.047,3.215,8.145,10.03
			c0.185,0.602-0.153,1.243-0.757,1.428C1829.667,1657.236,1829.506,1657.25,1829.35,1657.23z"/>
		<path style="fill:#E8C0A6;" d="M1839.468,1656.005c-0.418-0.052-0.792-0.335-0.94-0.762c-2.127-6.135-7.056-9.485-7.105-9.517
			c-0.525-0.351-0.668-1.06-0.317-1.585c0.349-0.526,1.055-0.67,1.582-0.319c0.229,0.151,5.612,3.783,8,10.673
			c0.207,0.596-0.108,1.248-0.706,1.454C1839.812,1656.008,1839.638,1656.026,1839.468,1656.005z"/>
		<path style="fill:#0F2E54;" d="M1803.995,1660.165l61.952,0.105c-0.231,1.889-0.756,3.723-1.707,5.376l-56.485-0.096
			c-2.744-0.005-4.706-2.709-3.792-5.293C1803.973,1660.227,1803.984,1660.196,1803.995,1660.165z"/>
		<path style="fill:#F99370;" d="M1753.868,1252.652c-33.247,8.307-94.707-6.9-112.159-83.724c0,0,4.9-3.627,15.558-5.246
			c0,0,21.324,51.616,82.865,30.721c29.154-9.899,59.882-9.26,59.882-9.26C1806.486,1186.527,1759.137,1251.336,1753.868,1252.652z"
			/>
		<path style="fill:#1D3F70;" d="M1873.94,1620.577c0,0-33.187,5.112-46.253,0c0,0-0.884-3.517-2.324-10.078
			c-6.242-28.558-22.835-114.75-21.614-219.221c-0.018,2.141-31.146,109.765-9.55,230.11c0,0-28.658,11.5-42.691,3.936
			c-8.265-46.864-37.597-167.354-5.121-327.884c0,0,66.355,2.88,112.035-10.907c0,0,13.377,67.047,11.846,141.102
			c0.018,75.267-7.554,84.434,2.46,181.533C1873.101,1612.841,1873.512,1616.64,1873.94,1620.577z"/>
		<path style="fill:#F99370;" d="M1799.06,1184.668c-0.204-1.529-0.33-3.184-0.396-4.911c-0.396-9.985,1.159-22.363,1.969-26.992
			c0.222-1.253,0.385-1.937,0.444-1.853c0.072-0.294,0.156-0.582,0.252-0.863c1.075-3.358,3.35-5.391,5.985-6.297
			c0.006,0,0.006,0,0.006,0c3.902-1.331,8.596-0.204,11.466,2.747c0.06,0.06,0.115,0.126,0.168,0.186
			c1.813,1.955,2.834,4.666,2.347,7.97c-0.024,0.15-0.042,0.306-0.072,0.456c-0.036,0.21-0.078,0.414-0.126,0.618
			c-0.48-0.318-1.825,12.696-1.837,22.141c0,3.112,0.144,5.841,0.51,7.574C1839.167,1191.253,1780.849,1210.361,1799.06,1184.668z"
			/>
		<path style="fill:#E57D61;" d="M1821.301,1154.654c-0.024,0.15-0.042,0.306-0.072,0.456c-0.036,0.21-0.078,0.414-0.126,0.618
			c-0.48-0.318-1.825,12.696-1.837,22.141c-8.885,4.036-18.79,2.261-20.603,1.889c-0.396-9.985,1.159-22.363,1.969-26.992
			c0.24-1.086,0.414-1.721,0.444-1.853c0.072-0.294,0.156-0.582,0.252-0.863c0.99-2.963,3.236-5.212,5.985-6.297
			c0.006,0,0.006,0,0.006,0c1.909-0.75,4.052-0.936,6.195-0.42c2.119,0.516,3.926,1.649,5.271,3.166
			c0.06,0.06,0.115,0.126,0.168,0.186C1820.767,1148.837,1821.692,1151.709,1821.301,1154.654z"/>
		<path style="fill:#EB5648;" d="M1799.06,1184.67c-14.01,18.97-38.388,51.958-52.336,70.843v0.004
			c-21.834,3.845-44.001-0.239-61.592-6.532c0.871-35.972,13.734-53.63,13.734-53.63c12.606,1.914,24.384,1.393,46.436-3.897
			C1770.823,1185.194,1786.132,1184.613,1799.06,1184.67z"/>
		<path style="fill:#CE3932;" d="M1766.182,1229.172l-19.459,26.345c-14.848,2.724-29.675,1.311-41.061-0.888l-0.008-0.004
			c0,0,27.865,2.314,36.442-7.885c8.577-10.195,22.96-25.918,22.96-25.918L1766.182,1229.172z"/>
		<path style="fill:#EB5648;" d="M1866.337,1341.855c-55.657,21.362-120.249,10.453-127.921,1.112
			c-7.237-7.985,1.097-59.294,8.308-87.454c10.425-30.352,30.907-54.026,52.336-70.843c-0.149,0.598-3.992,16.56,20.718,0.768
			c0,0,0,0,0.004,0.009c0,0,0,0,0.004,0c-0.008-0.009,7.364,0.794,7.364,0.794C1852.699,1203.64,1876.87,1289.026,1866.337,1341.855
			z"/>
		<path style="fill:#F99370;" d="M1783.651,1168.751c7.725,7.861,19.662,10.105,29.205,8.048c3.975-0.785,7.686-2.389,10.777-4.95
			h0.012c36.185-35.964-12.545-96.695-35.473-44.206C1780.556,1141.94,1767.421,1150.915,1783.651,1168.751z"/>
		<path style="fill:#F9F8F3;" d="M1789.753,1156.178l12.618-6.44c0,0,0.75,6.875-4.242,8.74
			C1793.358,1160.261,1789.753,1156.178,1789.753,1156.178z"/>
		<path style="fill:#C16256;" d="M1799.323,1139.117c-0.364-0.717-0.078-1.592,0.639-1.956c0.717-0.364,1.594-0.078,1.958,0.638
			s0.078,1.592-0.639,1.956C1800.564,1140.119,1799.687,1139.833,1799.323,1139.117z"/>
		<path style="fill:#C16256;" d="M1787.077,1137.061c-0.364-0.717-0.078-1.592,0.639-1.957c0.717-0.364,1.594-0.078,1.958,0.638
			c0.365,0.716,0.078,1.592-0.639,1.956C1788.318,1138.063,1787.442,1137.777,1787.077,1137.061z"/>
		<path style="fill:#C16256;" d="M1789.754,1156.728c-0.199,0-0.393-0.108-0.491-0.3c-0.137-0.27-0.031-0.603,0.241-0.741
			l12.617-6.44c0.266-0.138,0.601-0.034,0.74,0.241c0.137,0.27,0.031,0.603-0.241,0.74l-12.617,6.44
			C1789.924,1156.709,1789.839,1156.728,1789.754,1156.728z"/>
		<path style="fill:#E57D61;" d="M1792.515,1119.451c0,0,5.29,3.511,10.862,1.759c5.579-1.752,7.807,0,7.651,4.457
			c-0.162,4.451,7.963,3.142,8.924,5.23c0.955,2.089-0.156,6.066,1.672,8.771c1.829,2.706,10.99,6.035,10.99,6.035l-1.654,9.731
			c0,0-3.139,13.459-9.304,17.867c0.686-0.443,1.348-0.929,1.978-1.453h0.012c2.64-2.169,4.812-4.95,6.621-8.304
			c0.531-0.997,1.036-2.051,1.51-3.148c0.705-1.64,1.342-3.385,1.922-5.243c0.168-0.518,0.761-2.544,0.898-3.03
			c0.181-0.729-5.292-35.222-7.445-37.367c-0.125-0.112-31.14-0.05-32.238,1.359
			C1794.466,1116.697,1792.746,1119.083,1792.515,1119.451z"/>
		<path style="fill:#C16256;" d="M1791.71,1149.716c-1.943,0-4.057-0.846-4.557-2.019c-0.164-0.384-0.384-1.367,1.115-2.178
			c2.75-1.486,4.774-7.186,4.794-7.244c0.101-0.284,0.405-0.442,0.702-0.337c0.286,0.099,0.438,0.415,0.337,0.703
			c-0.087,0.25-2.185,6.157-5.308,7.848c-0.355,0.192-0.751,0.481-0.626,0.777c0.355,0.833,2.975,1.758,4.823,1.169
			c0.295-0.09,0.603,0.067,0.693,0.357c0.092,0.29-0.067,0.601-0.357,0.693C1792.832,1149.644,1792.278,1149.716,1791.71,1149.716z"
			/>
		<path style="fill:#662948;" d="M1794.427,1115.839c0,0-4.688-5.773,0.273-10.017c4.962-4.244,4.653-10.611,11.499-9.55
			c6.846,1.061,9.396,1.887,16.831-0.118c7.435-2.005,13.741,5.136,13.456,9.843c-0.285,4.706,9.7,4.706,11.187,11.073
			c1.487,6.367,0,8.277,0,11.036c0,2.759,8.71,6.367,7.011,12.946c-1.7,6.579-7.223,5.57-8.285,9.788
			c-1.062,4.218,2.188,11.453-2.686,13.829c-7.227,3.523-13.448-1.12-13.448-1.12s9.044-17.304,0.571-20.917
			c-4.124-1.758-8.179-4.127-6.718-10.281c1.46-6.154-7.645-4.244-9.784-7.428c-2.139-3.183-0.596-7.003-4.554-7.852
			C1805.822,1116.221,1803.213,1120.976,1794.427,1115.839z"/>
		<path style="fill:#F99370;" d="M1842.158,1149.902c-0.977,4.614-4.781,7.719-8.498,6.934c-3.717-0.785-5.938-5.162-4.961-9.776
			c0.976-4.615,4.781-7.719,8.497-6.935C1840.913,1140.91,1843.135,1145.287,1842.158,1149.902z"/>
		<path style="fill:#C16256;" d="M1838.687,1152.16c-0.053,0-0.107-0.007-0.161-0.024c-0.292-0.089-0.455-0.397-0.366-0.688
			c0.99-3.24,0.956-5.469-0.098-6.449c-1.405-1.304-4.291-0.203-4.32-0.19c-0.286,0.108-0.603-0.029-0.713-0.313
			c-0.11-0.284,0.029-0.603,0.311-0.713c0.145-0.056,3.559-1.362,5.468,0.406c1.409,1.305,1.544,3.854,0.406,7.582
			C1839.141,1152.008,1838.922,1152.16,1838.687,1152.16z"/>
		<path style="fill:#C16256;" d="M1833.542,1151.391c-0.073,0-0.147-0.015-0.215-0.044c-0.281-0.119-0.411-0.443-0.291-0.722
			c0.081-0.19,2.026-4.651,6.239-4.932c0.344,0.022,0.567,0.212,0.586,0.514c0.02,0.304-0.21,0.565-0.514,0.587
			c-3.531,0.233-5.281,4.222-5.298,4.264C1833.958,1151.266,1833.755,1151.391,1833.542,1151.391z"/>
		<path style="fill:#163356;" d="M1792.501,1610.501c0.517,3.599,1.088,7.232,1.694,10.884c0,0-28.656,11.507-42.689,3.936
			c0,0-0.677-3.081-1.765-8.888C1749.741,1616.433,1773.314,1621.741,1792.501,1610.501z"/>
		<path style="fill:#163356;" d="M1792.501,1610.501c0.151,1.433,0.428,2.868,0.66,4.311l-8.755,1.621
			c-11.198-50.447-6.562-147.367-1.106-179.217c5.367-31.333,19.989-45.494,20.435-45.904
			C1803.04,1393.396,1778.94,1481.741,1792.501,1610.501z"/>
		<path style="fill:#C16256;" d="M1807.577,1135.48c-0.049,0-0.099-0.007-0.147-0.021c-5.848-1.674-7.613-5.779-7.685-5.953
			c-0.113-0.272,0.016-0.584,0.288-0.697c0.271-0.113,0.583,0.015,0.697,0.286l0,0c0.016,0.038,1.664,3.812,6.994,5.337
			c0.283,0.081,0.447,0.377,0.366,0.66C1808.022,1135.327,1807.808,1135.48,1807.577,1135.48z"/>
		<path style="fill:#C16256;" d="M1787.811,1131.431c-0.135,0-0.27-0.051-0.374-0.153c-0.209-0.207-0.213-0.542-0.008-0.752
			c0.121-0.124,3.024-3.017,8.711-2.188c0.292,0.042,0.494,0.313,0.451,0.605c-0.042,0.292-0.313,0.494-0.605,0.451
			c-5.121-0.747-7.688,1.772-7.795,1.879C1788.086,1131.378,1787.948,1131.431,1787.811,1131.431z"/>
		<path style="fill:#CE3932;" d="M1694.255,1251.935c-5.704-1.592-9.123-2.95-9.123-2.95c0.871-35.972,13.734-53.63,13.734-53.63
			s2.66,0.645,7.843,0.888C1706.508,1196.641,1692.927,1223.489,1694.255,1251.935z"/>
		<path style="fill:#CE3932;" d="M1827.151,1186.241c-0.683,0.692-1.874,1.652-3.407,2.732c-1.784,1.259-4.039,2.681-6.502,4.021
			c-6.224,3.385-13.807,6.259-18.644,4.743c-3.236-1.012-4.641-3.185-5.144-5.478c-0.209-0.939-0.265-1.904-0.231-2.813
			c0.094-2.609,0.909-4.777,0.909-4.777l-0.009-0.026c3.176-0.051,4.935,0.026,4.935,0.026c-0.149,0.598-3.992,16.56,20.718,0.768
			c0,0,0,0,0.004,0.009c0,0,0,0,0.004,0C1819.91,1185.443,1822.583,1185.37,1827.151,1186.241z"/>
		<path style="fill:#CE3932;" d="M1817.807,1227.231c-24.534,3.077-38.648-2.519-39.263-2.77l2.727-6.726
			c0.142,0.056,14.407,5.604,38.933,1.834l1.101,7.173C1820.119,1226.925,1818.95,1227.088,1817.807,1227.231z"/>
		<path style="fill:#CE3932;" d="M1815.156,1243.995c-24.534,3.077-38.648-2.519-39.263-2.77l2.727-6.725
			c0.141,0.056,14.406,5.6,38.933,1.833l1.101,7.174C1817.468,1243.689,1816.299,1243.852,1815.156,1243.995z"/>
		<path style="fill:#F99370;" d="M1652.802,1139.552c-3.218,0.766-0.737,7.479-2.058,10.192c-3.654-3.517-6.322-8.118-6.356-8.123
			c-2.115-5.917-3.906-11.937-5.426-18.041c-6.745-6.513-0.389,16.191-0.215,18.769c-0.029,0.012-0.057,0.027-0.086,0.04
			c-3.458-5.599-6.615-11.398-9.264-17.424c-8.399-5.481,4.033,18.232,4.969,20.558c-0.011,0.011-0.021,0.023-0.032,0.034
			c-4.142-4.716-7.711-9.942-10.679-15.478c-8.889-4.351,5.479,18.094,7.198,20.264c-0.013,0.022-0.024,0.043-0.037,0.065
			c-3.792-3.23-7.172-6.944-10.334-10.799c-8.908-2.965,6.347,14.806,8.109,16.561c0.625,1.682,6.844,8.489,16.061,14.891
			c3.021,2.098,12.435-2.353,12.779-5.949C1656.684,1160.126,1656.591,1139.67,1652.802,1139.552z"/>
		<path style="fill:#163356;" d="M1873.94,1620.577c0,0-33.187,5.112-46.253,0c0,0-0.884-3.517-2.324-10.078
			c0,0,24.84,1.422,47.356-1.33h0.009C1873.101,1612.841,1873.512,1616.64,1873.94,1620.577z"/>
	</g>
	<g id="_x37_">
		<path style="fill:#F99370;" d="M1878.929,1661.155c0.19,2.085,1.932,3.956,4.317,3.956h59.781
			c0.637-6.096-1.415-11.671-1.084-18.352c-0.005-0.004-0.005-0.004,0-0.009c-0.272-17.741,3.344-39.286,4.632-55.344h-34.358
			c0.382,6.846,5.352,35.461,5.438,47.719c-2.015,11.47-19.514,10.365-26.827,12.961
			C1886.21,1653.14,1879.196,1655.701,1878.929,1661.155z"/>
		<path style="fill:#EB5648;" d="M1878.628,1661.155c0.042,2.085,1.778,3.956,4.071,3.956h60.328
			c0.042-0.265,0.078-0.516,0.106-0.766c0.009-0.056,0.014-0.107,0.018-0.162c0.028-0.316,0.051-0.636,0.074-0.957
			c0.009-0.687,0-1.379-0.023-2.071c0-0.07-0.005-0.139-0.009-0.209c-0.181-4.685-1.024-9.445-1.25-14.187
			c-0.005-0.004-0.005-0.004,0-0.009c-0.079-1.56-0.088-3.116,0.014-4.667c0,0-10.963,17.642-52.63,10.411
			c-1.436,0.413-2.923,0.901-4.326,1.546c-2.497,1.138-4.729,2.763-5.956,5.312h-0.005c-0.009,0.019-0.018,0.037-0.028,0.056
			C1878.739,1659.985,1878.618,1660.579,1878.628,1661.155z"/>
		<path style="fill:#CE3932;" d="M1878.628,1661.155c0.042,2.085,1.778,3.956,4.071,3.956h60.328
			c0.042-0.265,0.078-0.516,0.106-0.766c0.009-0.056,0.014-0.107,0.018-0.162c0.034-0.313,0.056-0.621,0.072-0.931
			c0-0.008,0.001-0.016,0.002-0.025c0-0.005,0-0.011,0-0.016c0.032-0.616,0.037-1.247,0.018-1.98
			c-0.004-0.023-0.009-0.051-0.014-0.074H1878.628z"/>
		<path style="fill:#F99370;" d="M2025.437,1660.443c1.133,1.76,3.543,2.613,5.658,1.509l52.993-27.67
			c-2.257-5.698-6.656-9.691-9.455-15.766c-0.006-0.002-0.006-0.002-0.004-0.009c-8.453-15.6-15.219-36.372-21.51-51.202
			l-30.456,15.902c3.507,5.891,21.157,28.957,26.907,39.783c3.522,11.1-12.5,18.22-17.781,23.906
			C2028.182,1649.968,2023.15,1655.484,2025.437,1660.443z"/>
		<path style="fill:#EB5648;" d="M2025.17,1660.582c1.002,1.829,3.408,2.684,5.44,1.623l53.477-27.923
			c-0.086-0.254-0.169-0.493-0.26-0.728c-0.018-0.054-0.037-0.101-0.059-0.152c-0.122-0.293-0.249-0.588-0.377-0.882
			c-0.31-0.614-0.639-1.223-0.979-1.825c-0.032-0.062-0.069-0.121-0.105-0.181c-2.328-4.07-5.279-7.899-7.675-11.997
			c-0.006-0.002-0.006-0.002-0.004-0.009c-0.792-1.347-1.52-2.721-2.148-4.143c0,0-1.553,20.712-41.834,33.588
			c-1.082,1.031-2.174,2.151-3.119,3.373c-1.687,2.164-2.913,4.638-2.821,7.466l-0.004,0.002c0,0.021,0.001,0.042,0.001,0.063
			C2024.727,1659.493,2024.896,1660.076,2025.17,1660.582z"/>
		<path style="fill:#CE3932;" d="M2025.17,1660.582c1.002,1.829,3.408,2.684,5.44,1.623l53.477-27.923
			c-0.086-0.254-0.169-0.493-0.26-0.728c-0.018-0.054-0.037-0.101-0.059-0.152c-0.115-0.293-0.239-0.576-0.367-0.859
			c-0.003-0.008-0.007-0.016-0.01-0.023c-0.002-0.005-0.005-0.01-0.008-0.014c-0.257-0.561-0.545-1.123-0.9-1.764
			c-0.015-0.018-0.032-0.041-0.047-0.059L2025.17,1660.582z"/>
		<path style="fill:#C92828;" d="M1907.314,1177.935c-4.816-11.348-4.43-28.37,3.761-41.215
			c11.15-17.484,32.766-16.888,32.766-16.888s77.84,2.838,39.137,150.73l-88.308-13.614
			C1894.669,1256.948,1892.107,1213.299,1907.314,1177.935z"/>
		<path style="fill:#CE4ABF;" d="M1979.156,1224.33c0,0,50.64,39.282,49.632,89.398c-1.008,50.116-54.93,24.571-54.93,24.571
			L1979.156,1224.33z"/>
		<path style="fill:#F99370;" d="M1941.869,1248.516c7.564,13.945,21.126,37.097,7.338,50.321
			c-25.146,14.321-66.416,3.543-88.396-14.809c-3.539-4.053-2.964-0.787-6.903,3.912c-6.066,7.716,4.108,14.795,8.827,20.078
			c26.595,25.263,69.781,36.393,103.75,19.705c36.278-19.513,28.603-68.656,13.541-99.445
			C1966.984,1202.335,1927.739,1223.13,1941.869,1248.516z"/>
		<path style="fill:#F4D4BE;" d="M1872.533,1334.006c0.917,17.011,2.843,32.387,8.508,47.385c3.336-1.827,8.257-0.785,12.629,0.683
			c7.127-9.66,0.134-14.903,2.398-24.662c16.048-45.384,24.603-101.102,34.816-148.247
			C1883.516,1217.058,1870.096,1287.122,1872.533,1334.006z"/>
		<path style="fill:#D1A68F;" d="M1876.208,1364.681c1.098,5.21,2.403,9.99,3.878,14.182c0.313,0.866,0.643,1.715,0.956,2.529
			c0,0,0.667-0.507,2.258-0.795c0.937-0.155,2.212-0.243,3.863-0.07c1.74,0.19,3.89,0.641,6.508,1.547
			c4.753-6.39,3.225-10.599,2.356-15.865c-0.407-2.553-0.657-5.375,0.041-8.797c0.432-2.138,1.251-4.531,2.614-7.25
			c0.904-2.642,1.805-5.479,2.704-8.477c3.665-12.151,7.329-26.967,10.842-42.51c1.422-6.31,2.824-12.726,4.191-19.142
			c1.216-5.756-16.563-34.748-15.416-40.379l1.615-5.992c0,0-15.235,15.654-14.883,41.907c0.205,15.318-2.246,34.558-7.631,49.291
			C1874.718,1339.61,1876.208,1364.681,1876.208,1364.681z"/>
		<path style="fill:#9358E0;" d="M2088.942,1585.577c0,0-31.827,33.624-73.682,33.334c-2.241-3.731-4.376-7.386-6.408-10.972
			c-40.66-71.74-40.587-115.55-61.63-194.594c-0.034-0.132-0.073-0.269-0.107-0.406c-0.555-3.27,1.149,106.892,20.906,197.561
			c0.303,1.392,0.611,2.779,0.922,4.162c0.653,2.894,1.323,5.768,2.015,8.615c0,0-49.036,16.253-77.345,0.491
			c0,0-0.495-3.911-1.311-10.925c-4.325-37.296-16.942-169.527-11.913-261.387c0,0,65.814,9.15,121.32-1.487
			c0,0,10.741,18.045,21.563,65.851c14.522,64.15,33.624,107.669,59.764,158.315
			C2084.98,1577.901,2086.948,1581.713,2088.942,1585.577z"/>
		<path style="fill:#7640CC;" d="M1911.688,1622.177c-10.825-124.304-11.29-263.228-11.294-264.616l2.135-0.005
			c0.003,1.388,0.469,140.224,11.286,264.436L1911.688,1622.177z"/>
		<path style="fill:#7640CC;" d="M2039.711,1607.179c-13.495-16.994-26.212-41.246-37.797-72.085
			c-9.253-24.629-17.813-53.501-25.445-85.814c-12.988-54.997-18.856-101.539-18.913-102.003l2.118-0.264
			c0.058,0.463,5.914,46.909,18.878,101.797c11.95,50.595,32.55,118.91,62.83,157.041L2039.711,1607.179z"/>
		<path style="fill:#F4D4BE;" d="M2001.713,1349.97c1.321,0.874-87.347,22.492-121.32,1.489c-2.293-5.985-0.93-13.655,1.559-21.849
			c0.475-1.538,0.979-3.097,1.517-4.67c3.978-11.732,9.264-24.086,8.865-33.868c0.629-19.059-6.95-27.897,7.068-49.068
			c10.166-15.144,21.171-25.345,31.477-32.84l22.164,0.538c22.345,2.202,41.307,43.516,41.461,78.734
			c0.007,0.049,0.007,0.098,0.007,0.154c0,0.692,0,1.377-0.021,2.063v0.147c-0.084,4.391-0.475,8.677-1.196,12.753
			c-0.007,0.035-0.014,0.077-0.021,0.112c-0.007,0.063-0.014,0.119-0.014,0.182c-0.091,1.112-0.112,2.217-0.063,3.328
			C1993.806,1322.367,2006.216,1337.099,2001.713,1349.97z"/>
		<path style="fill:#7640CC;" d="M1947.317,1414.147c0.113-0.019,0.226-0.054,0.335-0.107c0.607-0.297,0.86-1.029,0.563-1.635
			c-0.042-0.088-4.25-8.738-8.294-19.197c-0.244-0.631-0.949-0.931-1.583-0.701c-0.63,0.245-0.944,0.954-0.7,1.583
			c4.082,10.562,8.334,19.301,8.377,19.387C1946.259,1413.975,1946.796,1414.234,1947.317,1414.147z"/>
		<path style="fill:#D1A68F;" d="M1949.444,1273.72c0,0-5.559,15.652-15.594,20.929c-10.036,5.278-33.612,3.324-41.796-0.194
			l-3.992,5.348l6.897,8.074c0,0,56.037,5.446,56.178,4.687c0.141-0.758,5.498-28.609,5.498-28.609L1949.444,1273.72z"/>
		<path style="fill:#D1A68F;" d="M1994.491,1290.653v0.147c-0.084,4.391-0.475,8.677-1.196,12.753
			c-0.021,0.042-0.028,0.077-0.028,0.112c0,0.063,0,0.119-0.007,0.182c-0.028,1.021-0.035,2.042,0.021,3.034l-0.021,0.126
			c0,0-0.021,0.056-0.063,0.168c-0.93,2.433-12.347,30.631-43.013,37.629c-30.756,7.02-51.962-4.614-68.232-15.193
			c-0.105-0.07-0.203-0.14-0.308-0.203c0.469-1.51,1.133-2.979,1.825-4.468c0.734-1.587,1.489-3.202,2.042-4.936
			c0.475-1.517,0.972-3.069,1.426-4.601l107.155-30.98c0.028,2.398,0.322,2.706,0.412,4.013c0.007,0.049,0.007,0.098,0.007,0.154
			C1994.547,1289.087,1994.547,1289.723,1994.491,1290.653z"/>
		<path style="fill:#CE4ABF;" d="M1919.598,1212.511c0,0-12.886,14.426-18.595,27.143c0,0,2.778-12.183,6.789-19.189
			C1909.376,1217.696,1911.866,1212.332,1919.598,1212.511z"/>
		<path style="fill:#CE4ABF;" d="M1960.685,1211.957c0,0-18.005,15.702-13.863,48.866c0,0,7.032-29.085,20.928-45.829
			C1967.75,1214.994,1966.187,1212.232,1960.685,1211.957z"/>
		<path style="fill:#D1A68F;" d="M1927.272,1226.685c0.672,0.167,1.41,0.295,2.23,0.389c8.972,1.03,15.733-2.233,20.432-6.079
			c4.205-3.438,6.75-7.337,7.749-9.036c0.317-0.549,0.589-1.023,0.589-1.023c-2.877-1.272-4.974-1.181-5.211-1.227
			c-0.005,0-0.011-0.005-0.017-0.005c-0.005-0.005-0.005-0.005-0.005-0.005l-22.147-0.528c-1.375,0.239-2.728,0.532-4.047,0.87
			c-1.09,1.463-2.14,3.019-2.992,4.583C1921.005,1219.809,1920.312,1225.006,1927.272,1226.685z"/>
		<path style="fill:#F99370;" d="M1930.889,1209.167c0.01,0.716-4.981-13.345-3.418-20.45c2.966-14.022,26.822-25.765,23.472-11.898
			c-0.718-0.439,2.093,32.879,2.093,32.879c-1.98,6.827-13.161,11.516-19.659,10.667
			C1925.914,1219.389,1930.889,1209.167,1930.889,1209.167z"/>
		<path style="fill:#E57D61;" d="M1952.188,1199.221c-8.744,8.272-20.527,7.106-22.469,6.734
			c-6.761-16.567-0.671-37.264,9.398-40.785C1946.486,1161.895,1951.365,1181.506,1952.188,1199.221z"/>
		<path style="fill:#F99370;" d="M1961.876,1168.198c-0.866,9.846-3.354,21.055-10.564,28.057l-0.012,0.001
			c-2.912,2.805-6.568,4.724-10.516,5.807c-21.349,8.618-51.093-17.489-34.345-36.976c2.766-3.161,4.864-7.291,5.865-10.973
			C1921.712,1115.215,1965.717,1133.975,1961.876,1168.198z"/>
		<path style="fill:#C16256;" d="M1924.385,1164.906c-0.42-0.699-0.195-1.606,0.503-2.028c0.697-0.422,1.603-0.197,2.023,0.502
			c0.42,0.699,0.195,1.606-0.502,2.028C1925.711,1165.829,1924.805,1165.604,1924.385,1164.906z"/>
		<path style="fill:#C16256;" d="M1911.878,1163.728c-0.42-0.699-0.195-1.607,0.503-2.028c0.697-0.421,1.603-0.197,2.022,0.502
			c0.42,0.698,0.195,1.606-0.502,2.028S1912.298,1164.426,1911.878,1163.728z"/>
		<path style="fill:#C16256;" d="M1915.492,1176.073c1.202,0.237,2.552,0.193,3.596-0.229c0.286-0.115,0.424-0.441,0.308-0.726
			c-0.116-0.289-0.441-0.427-0.727-0.309c-1.819,0.737-4.527-0.01-4.948-0.826c-0.151-0.292,0.229-0.616,0.574-0.838
			c3.03-1.94,4.716-8.079,4.787-8.337c0.08-0.299-0.096-0.604-0.394-0.686c-0.268-0.093-0.603,0.095-0.684,0.393
			c-0.016,0.061-1.644,5.981-4.312,7.69c-1.456,0.935-1.159,1.914-0.964,2.291
			C1913.123,1175.258,1914.224,1175.823,1915.492,1176.073z"/>
		<path style="fill:#E57D61;" d="M1961.876,1168.198c-0.866,9.846-3.354,21.055-10.564,28.057l-0.012,0.001
			c3.871-5.6,5.672-17.63,5.672-17.63l-2.387-5.117c-34.5-8.441-33.559-35.795-33.559-35.795
			C1940.971,1120.724,1965.144,1145.829,1961.876,1168.198z"/>
		<path style="fill:#C92828;" d="M1924.436,1135.038c0,0-0.791,26.963,30.172,35.743l10.399-6.784c0,0,7.104-18.446-6.307-31.29
			C1949.18,1123.59,1931.114,1128.376,1924.436,1135.038z"/>
		<path style="fill:#F99370;" d="M1968.396,1172.665c-0.65,4.744-4.263,8.169-8.071,7.649c-3.807-0.52-6.367-4.788-5.718-9.533
			c0.65-4.745,4.263-8.169,8.071-7.649C1966.486,1163.652,1969.046,1167.92,1968.396,1172.665z"/>
		<path style="fill:#C16256;" d="M1964.909,1175.197c0.296,0.058,0.586-0.129,0.653-0.425c0.88-3.861,0.555-6.435-0.966-7.648
			c-2.06-1.647-5.401-0.074-5.545-0.003c-0.277,0.133-0.394,0.466-0.261,0.744c0.131,0.276,0.466,0.392,0.744,0.263
			c0.029-0.015,2.862-1.34,4.368-0.131c1.139,0.912,1.337,3.169,0.572,6.529c-0.069,0.299,0.12,0.598,0.42,0.668
			C1964.899,1175.194,1964.904,1175.196,1964.909,1175.197z"/>
		<path style="fill:#C16256;" d="M1959.662,1174.798c0.269,0.053,0.544-0.101,0.636-0.368c0.014-0.042,1.49-4.21,5.036-4.706
			c0.306-0.044,0.518-0.325,0.475-0.632c-0.042-0.305-0.321-0.518-0.63-0.475c-4.231,0.594-5.87,5.253-5.938,5.452
			c-0.099,0.291,0.056,0.609,0.347,0.709C1959.612,1174.786,1959.637,1174.792,1959.662,1174.798z"/>
		<path style="fill:#C16256;" d="M1913.581,1181.632c0.003,0,0.005,0.001,0.009,0.002c6.206,1.128,10.963-1.773,11.163-1.897
			c0.262-0.164,0.342-0.507,0.179-0.769c-0.163-0.265-0.508-0.343-0.768-0.181c-0.046,0.029-4.607,2.798-10.374,1.747
			c-0.303-0.055-0.594,0.146-0.649,0.45C1913.085,1181.285,1913.282,1181.573,1913.581,1181.632z"/>
		<path style="fill:#F4D4BE;" d="M1860.691,1305.896c1.495,1.828,3.333,4.235,6.042,6.687c13.725,12.325,41.401,30.06,65.935,28.966
			c23.984-1.07,59.698-14.274,63.562-62.928c3.882-48.636-28.472-63.625-28.472-63.625c-15.308,18.865-20.935,45.827-20.935,45.827
			c7.526,20.548-1.308,37.14-23.398,40.636c-15.264,2.409-34.836-3.191-45.485-6.886c-4.754-1.642-7.22-3.546-7.22-3.546
			C1870.166,1301.251,1860.691,1305.896,1860.691,1305.896z"/>
		<path style="fill:#D1A68F;" d="M1890.683,1298.388c0.421-0.006,0.791-0.314,0.862-0.744c0.08-0.482-0.247-0.94-0.731-1.02
			c-0.097-0.016-9.786-1.615-14.033-2.453c-0.488-0.085-0.948,0.219-1.042,0.7c-0.095,0.481,0.218,0.948,0.699,1.043
			c4.275,0.841,13.991,2.446,14.089,2.462C1890.579,1298.384,1890.631,1298.389,1890.683,1298.388z"/>
		<path style="fill:#D1A68F;" d="M1881.167,1325.437c0.245-0.003,0.488-0.109,0.661-0.31c0.32-0.371,0.277-0.932-0.094-1.25
			c-0.122-0.104-12.159-10.469-14.303-13.35c-0.293-0.394-0.845-0.479-1.242-0.182c-0.393,0.292-0.475,0.848-0.182,1.24
			c2.26,3.039,14.068,13.206,14.57,13.637C1880.747,1325.368,1880.957,1325.439,1881.167,1325.437z"/>
		<path style="fill:#C16256;" d="M1931.113,1160.018c-0.096-0.015-0.19-0.056-0.269-0.125c-3.841-3.344-8.024-2.526-8.066-2.518
			c-0.287,0.06-0.57-0.125-0.631-0.413c-0.06-0.288,0.123-0.57,0.411-0.631c0.191-0.041,4.73-0.949,8.987,2.757
			c0.222,0.194,0.246,0.531,0.052,0.753C1931.473,1159.984,1931.288,1160.045,1931.113,1160.018z"/>
		<path style="fill:#C16256;" d="M1911.861,1157.712c-0.133-0.021-0.259-0.091-0.346-0.207c-0.177-0.236-0.129-0.57,0.108-0.747
			c0.109-0.082,2.714-1.983,6.661-0.673c0.28,0.093,0.431,0.395,0.338,0.674s-0.392,0.434-0.675,0.338
			c-3.422-1.135-5.662,0.497-5.685,0.514C1912.143,1157.701,1911.998,1157.733,1911.861,1157.712z"/>
		<path style="fill:#F99370;" d="M1862.851,1286.08c-1.049-3.062-7.895-20.609-11.118-19.343c-2.785,1.24,1.081,6.525,1.21,8.873
			c-5.369-4.455-11.722-7.768-18.552-9.197c-2.313-0.606-3.352,2.795-1.162,3.77c3.162,1.407,6.082,3.093,8.739,5.042
			c-3.887-1.514-11.866-5.19-13.177-2.599c-0.436,0.936-0.002,2.051,0.946,2.453c4.298,1.973,8.399,4.383,12.276,7.11
			c-1.865-0.751-3.714-1.545-5.537-2.389c-2.502-1.159-7.187-5.084-9-2.64c-1.933,2.125,7.463,7.259,15.909,11.224
			c-3.18-0.977-6.513-2.19-9.584-3.434c-2.01-0.857-3.535,2.187-1.63,3.283c4.48,2.275,27.861,17.879,25.85,4.998
			c0.749-0.497,1.259-1.329,1.449-2.226C1861.896,1290.901,1863.625,1288.384,1862.851,1286.08z"/>
		<path style="fill:#7640CC;" d="M1970.959,1623.278c0,0-49.036,16.253-77.345,0.491c0,0-0.495-3.911-1.311-10.925
			c0,0,38.944,15.155,75.718-2.344C1968.957,1614.808,1969.938,1619.073,1970.959,1623.278z"/>
		<path style="fill:#7640CC;" d="M2088.942,1585.577c0,0-31.827,33.624-73.682,33.334c-2.241-3.731-4.376-7.386-6.408-10.972
			c0,0,44.733-4.269,74.186-33.803C2084.98,1577.901,2086.948,1581.713,2088.942,1585.577z"/>
		<path style="fill:#7640CC;" d="M1968.944,1614.663l-7.313,1.772c-10.464-39.789-17.875-135.487-20.492-167.754
			c-2.617-32.262,5.435-39.772,5.435-39.772l0.649,4.436c-0.034-0.132-0.073-0.269-0.107-0.406
			c-0.555-3.27,1.149,106.892,20.906,197.561C1968.325,1611.892,1968.632,1613.28,1968.944,1614.663z"/>
		<path style="fill:#D1A68F;" d="M1870.719,1291.026l7.583,3.769c0,0-0.333,13.063-11.57,17.788c0,0-3.465-2.546-6.042-6.687
			C1860.691,1305.896,1869.591,1300.236,1870.719,1291.026z"/>
	</g>
	<g id="_x36_">
		
			<ellipse transform="matrix(0.9598 -0.2805 0.2805 0.9598 -72.4528 355.8423)" style="fill:#F9B233;" cx="1206.819" cy="431.017" rx="66.757" ry="66.757"/>
		<path style="fill:#F39200;" d="M1206.862,364.243c29.494-0.002,56.475,19.691,64.452,49.538
			c9.519,35.619-11.639,72.211-47.258,81.73c-5.772,1.543-11.574,2.28-17.278,2.28c-29.494,0-56.475-19.691-64.452-49.538
			c-9.519-35.619,11.639-72.211,47.258-81.73C1195.355,364.98,1201.158,364.243,1206.862,364.243L1206.862,364.243z
			 M1206.867,353.461h-0.001c-6.749,0-13.499,0.89-20.065,2.645c-20.009,5.348-36.739,18.167-47.106,36.097
			s-13.132,38.824-7.785,58.833c9.053,33.877,39.84,57.536,74.868,57.536c6.743,0,13.493-0.89,20.062-2.645
			c41.306-11.039,65.93-53.624,54.891-94.93C1272.676,377.121,1241.891,353.461,1206.867,353.461L1206.867,353.461z"/>
		<path style="fill:#F39200;" d="M1247.555,439.114c-4.356-16.297-21.002-19.117-36.694-19.726
			c-16.883-0.725-20.441-2.611-21.364-6.064c-0.423-1.584,0.06-3.357,1.36-4.993c1.406-1.768,4.433-4.237,10.874-5.958
			c10.555-2.82,17.925-1.723,21.07-1.255c2.173,0.322,4.218-1.107,4.658-3.258l1.989-9.711c0.226-1.105-0.009-2.255-0.651-3.183
			c-0.643-0.928-1.637-1.552-2.751-1.729c-6.575-1.042-13.523-0.843-21.136,0.614l-2.348-8.787
			c-0.284-1.059-0.975-1.962-1.925-2.511c-0.949-0.548-2.077-0.697-3.136-0.415l-10.612,2.836c-2.205,0.59-3.515,2.855-2.926,5.06
			l2.59,9.691c-15.022,7.213-22.563,19.193-19.348,31.224c4.001,14.971,20.687,17.486,38.083,17.972
			c15.755,0.585,18.764,3.975,19.63,7.215c0.747,2.794-0.799,5.221-2.226,6.764c-2.523,2.726-6.719,4.977-11.817,6.34
			c-8.042,2.149-16.871,2.495-24.222,0.954c-1.094-0.23-2.23-0.007-3.155,0.615c-0.926,0.622-1.561,1.592-1.76,2.69l-1.783,9.794
			c-0.393,2.158,0.969,4.248,3.103,4.759c6.695,1.607,16.437,1.419,25.71-0.405l2.479,9.276c0.495,1.848,2.165,3.067,3.991,3.067
			c0.353,0,0.713-0.046,1.07-0.141l10.783-2.882c1.059-0.283,1.963-0.975,2.511-1.924c0.549-0.949,0.698-2.077,0.415-3.136
			l-2.695-10.082C1245.032,463.343,1250.34,449.537,1247.555,439.114z"/>
	</g>
	<g id="_x35_">
		
			<ellipse transform="matrix(0.7071 -0.7071 0.7071 0.7071 167.0724 1180.2034)" style="fill:#F9B233;" cx="1508.168" cy="388.427" rx="77.374" ry="77.374"/>
		<path style="fill:#F39200;" d="M1499.885,311.479c33.986-3.683,67.533,15.643,80.449,49.041
			c15.413,39.856-4.401,84.661-44.257,100.074c-6.459,2.498-13.053,4.071-19.625,4.783c-33.986,3.68-67.533-15.643-80.449-49.041
			c-15.413-39.856,4.402-84.66,44.258-100.074C1486.718,313.764,1493.312,312.191,1499.885,311.479L1499.885,311.479z
			 M1498.545,299.054l-0.002,0c-7.777,0.843-15.443,2.71-22.791,5.552c-22.39,8.658-40.067,25.518-49.776,47.472
			c-9.709,21.954-10.288,46.375-1.629,68.765c14.659,37.906,53.087,61.328,93.45,56.957c7.771-0.841,15.437-2.709,22.787-5.552
			c46.219-17.874,69.28-70.018,51.406-116.237C1577.33,318.106,1538.904,294.684,1498.545,299.054L1498.545,299.054z"/>
		<path style="fill:#F39200;" d="M1556.117,392.675c-7.052-18.235-26.586-19.408-44.743-18.152
			c-19.545,1.271-23.88-0.458-25.374-4.322c-0.685-1.773-0.349-3.876,0.944-5.923c1.399-2.213,4.579-5.436,11.787-8.223
			c11.81-4.567,20.44-4.221,24.123-4.075c2.544,0.1,4.722-1.802,4.961-4.336l1.081-11.438c0.123-1.301-0.292-2.598-1.147-3.586
			c-0.857-0.989-2.079-1.584-3.385-1.649c-7.706-0.38-15.688,0.716-24.278,3.345l-3.802-9.832c-0.459-1.184-1.369-2.139-2.531-2.653
			c-1.162-0.513-2.48-0.545-3.665-0.087l-11.875,4.592c-2.467,0.954-3.694,3.728-2.74,6.196l4.194,10.844
			c-16.41,10.186-23.604,24.931-18.398,38.394c6.479,16.752,26.019,17.568,46.126,15.957c18.227-1.292,22.117,2.239,23.52,5.864
			c1.209,3.127-0.269,6.116-1.721,8.072c-2.567,3.456-7.121,6.573-12.826,8.779c-8.999,3.48-19.129,4.981-27.793,4.121
			c-1.29-0.129-2.57,0.27-3.559,1.102c-0.989,0.832-1.6,2.03-1.693,3.319l-0.833,11.509c-0.183,2.536,1.647,4.774,4.169,5.097
			c7.916,1.017,19.117-0.415,29.575-3.675l4.013,10.38c0.8,2.068,2.878,3.264,4.981,3.036c0.407-0.044,0.815-0.142,1.215-0.296
			l12.066-4.666c1.185-0.458,2.14-1.368,2.653-2.53c0.514-1.162,0.545-2.48,0.087-3.665l-4.363-11.281
			C1556.234,420.909,1560.627,404.337,1556.117,392.675z"/>
	</g>
	<g id="_x34_">
		
			<ellipse transform="matrix(0.7071 -0.7071 0.7071 0.7071 -358.1222 659.2889)" style="fill:#F9B233;" cx="616.771" cy="761.936" rx="70.959" ry="70.959"/>
		<path style="fill:#F39200;" d="M609.175,691.367c31.168-3.377,61.934,14.346,73.779,44.975
			c14.135,36.551-4.037,77.641-40.588,91.776c-5.923,2.291-11.971,3.734-17.998,4.387c-31.168,3.375-61.934-14.346-73.779-44.975
			c-14.135-36.551,4.037-77.641,40.588-91.777C597.1,693.463,603.147,692.021,609.175,691.367L609.175,691.367z M607.946,679.973
			l-0.002,0c-7.132,0.773-14.163,2.486-20.901,5.092c-20.533,7.941-36.745,23.402-45.649,43.536
			c-8.904,20.134-9.435,42.53-1.494,63.063c13.444,34.763,48.686,56.243,85.702,52.235c7.126-0.772,14.158-2.485,20.898-5.091
			c42.387-16.392,63.536-64.212,47.143-106.6C680.199,697.445,644.959,675.965,607.946,679.973L607.946,679.973z"/>
		<path style="fill:#F39200;" d="M660.745,765.831c-6.468-16.724-24.382-17.799-41.034-16.647c-17.925,1.165-21.9-0.42-23.27-3.963
			c-0.629-1.626-0.32-3.555,0.866-5.432c1.284-2.029,4.2-4.985,10.81-7.541c10.831-4.188,18.746-3.871,22.123-3.737
			c2.333,0.092,4.33-1.653,4.55-3.977l0.991-10.49c0.112-1.193-0.268-2.382-1.052-3.289c-0.786-0.907-1.907-1.453-3.105-1.512
			c-7.067-0.348-14.387,0.657-22.266,3.067l-3.487-9.017c-0.421-1.086-1.255-1.962-2.321-2.433c-1.066-0.471-2.275-0.5-3.361-0.08
			l-10.89,4.212c-2.262,0.875-3.388,3.419-2.513,5.682l3.846,9.945c-15.049,9.341-21.647,22.864-16.873,35.21
			c5.942,15.363,23.862,16.111,42.301,14.634c16.716-1.185,20.284,2.053,21.57,5.378c1.109,2.868-0.247,5.609-1.579,7.403
			c-2.354,3.169-6.531,6.028-11.763,8.052c-8.253,3.191-17.543,4.568-25.488,3.78c-1.183-0.118-2.357,0.247-3.264,1.01
			c-0.907,0.763-1.467,1.861-1.553,3.044l-0.764,10.555c-0.168,2.326,1.51,4.378,3.823,4.674c7.259,0.933,17.532-0.381,27.122-3.37
			l3.681,9.519c0.734,1.896,2.639,2.993,4.568,2.784c0.373-0.04,0.748-0.13,1.115-0.272l11.066-4.279
			c1.087-0.42,1.962-1.255,2.433-2.321c0.471-1.065,0.5-2.275,0.08-3.361l-4.001-10.346
			C660.852,791.724,664.881,776.527,660.745,765.831z"/>
	</g>
	<g id="_x33_">
		
			<ellipse transform="matrix(0.0485 -0.9988 0.9988 0.0485 1029.2133 1523.5603)" style="fill:#F9B233;" cx="1314.259" cy="221.59" rx="49.5" ry="49.5"/>
		<path style="fill:#F39200;" d="M1326.275,173.557c21.22,5.293,37.096,24.304,37.477,47.209
			c0.455,27.334-21.335,49.862-48.67,50.317c-4.429,0.074-8.736-0.437-12.84-1.461c-21.219-5.294-37.096-24.304-37.477-47.209
			c-0.455-27.335,21.336-49.862,48.67-50.317C1317.865,172.022,1322.172,172.534,1326.275,173.557L1326.275,173.557z
			 M1328.214,165.801l-0.001,0c-4.856-1.211-9.871-1.782-14.911-1.698c-15.355,0.255-29.692,6.475-40.37,17.514
			c-10.677,11.039-16.417,25.574-16.161,40.93c0.433,25.997,18.335,48.545,43.536,54.833c4.852,1.211,9.867,1.782,14.908,1.698
			c31.699-0.527,57.058-26.745,56.531-58.444C1371.314,194.636,1353.413,172.088,1328.214,165.801L1328.214,165.801z"/>
		<path style="fill:#F39200;" d="M1342.112,234.727c-0.208-12.507-11.678-17.524-22.858-20.778
			c-12.016-3.553-14.237-5.548-14.282-8.197c-0.02-1.216,0.646-2.404,1.875-3.348c1.329-1.02,3.95-2.253,8.893-2.335
			c8.1-0.134,13.205,1.978,15.384,2.879c1.506,0.622,3.233-0.04,3.936-1.508l3.174-6.629c0.361-0.754,0.398-1.624,0.103-2.407
			c-0.296-0.783-0.899-1.41-1.668-1.737c-4.543-1.93-9.578-3.034-15.316-3.352l-0.112-6.743c-0.014-0.813-0.35-1.587-0.934-2.152
			c-0.584-0.565-1.369-0.875-2.182-0.861l-8.144,0.135c-1.692,0.028-3.041,1.423-3.014,3.115l0.124,7.437
			c-12.102,2.493-19.678,9.758-19.524,18.991c0.191,11.489,11.744,16.293,24.173,19.766c11.23,3.249,12.786,6.228,12.828,8.714
			c0.036,2.145-1.512,3.613-2.816,4.467c-2.304,1.508-5.727,2.374-9.64,2.44c-6.172,0.102-12.585-1.233-17.598-3.662
			c-0.746-0.362-1.603-0.406-2.38-0.124c-0.778,0.281-1.409,0.865-1.75,1.619l-3.041,6.727c-0.67,1.482-0.065,3.23,1.378,3.981
			c4.528,2.358,11.57,3.972,18.569,4.323l0.118,7.119c0.024,1.418,1.007,2.595,2.32,2.923c0.254,0.063,0.521,0.095,0.795,0.09
			l8.275-0.138c0.813-0.013,1.587-0.349,2.152-0.934c0.565-0.584,0.875-1.369,0.862-2.182l-0.129-7.737
			C1335.948,251.706,1342.245,242.725,1342.112,234.727z"/>
	</g>
	<g id="_x32_">
		<path style="fill:#EB5648;" d="M717.995,444.955c-37.073,0-67.235-30.161-67.235-67.234c0-37.074,30.162-67.235,67.235-67.235
			c37.074,0,67.235,30.161,67.235,67.235C785.23,414.794,755.069,444.955,717.995,444.955z M717.995,348.159
			c-16.3,0-29.562,13.262-29.562,29.562s13.261,29.56,29.562,29.56c16.301,0,29.562-13.26,29.562-29.56
			S734.296,348.159,717.995,348.159z"/>
		<path style="fill:#EB5648;" d="M889.436,616.397c-37.074,0-67.235-30.161-67.235-67.235c0-37.074,30.161-67.235,67.235-67.235
			s67.235,30.161,67.235,67.235C956.671,586.236,926.509,616.397,889.436,616.397z M889.436,519.6
			c-16.301,0-29.562,13.262-29.562,29.562c0,16.3,13.261,29.562,29.562,29.562c16.3,0,29.562-13.262,29.562-29.562
			C918.998,532.862,905.736,519.6,889.436,519.6z"/>
		<path style="fill:#EB5648;" d="M688.433,597.56c-4.821,0-9.641-1.839-13.32-5.517c-7.356-7.357-7.356-19.283,0-26.64
			l230.564-230.564c7.357-7.357,19.283-7.357,26.64,0c7.356,7.357,7.356,19.283,0,26.64L701.753,592.043
			C698.075,595.722,693.254,597.56,688.433,597.56z"/>
	</g>
	<g id="_x31_">
		
			<rect x="517.96" y="1533.309" transform="matrix(-1 -1.224647e-16 1.224647e-16 -1 1167.0508 3083.2617)" style="fill:#F39200;" width="131.131" height="16.645"/>
		
			<rect x="531.335" y="1549.953" transform="matrix(-1 -1.224647e-16 1.224647e-16 -1 1193.8005 3116.551)" style="fill:#F39200;" width="131.131" height="16.645"/>
		<rect x="536.35" y="1500.019" style="fill:#F39200;" width="131.131" height="16.645"/>
		<rect x="522.976" y="1516.664" style="fill:#F39200;" width="131.131" height="16.645"/>
		
			<rect x="527.991" y="1566.598" transform="matrix(-1 -1.224647e-16 1.224647e-16 -1 1187.113 3149.8406)" style="fill:#F39200;" width="131.13" height="16.645"/>
		
			<rect x="517.96" y="1583.243" transform="matrix(-1 -1.224647e-16 1.224647e-16 -1 1167.0508 3183.1299)" style="fill:#F39200;" width="131.131" height="16.645"/>
		
			<rect x="514.616" y="1599.887" transform="matrix(-1 -1.224647e-16 1.224647e-16 -1 1160.3634 3216.4192)" style="fill:#F39200;" width="131.131" height="16.645"/>
		
			<rect x="531.335" y="1616.532" transform="matrix(-1 -1.224647e-16 1.224647e-16 -1 1193.8005 3249.7085)" style="fill:#F39200;" width="131.131" height="16.645"/>
		
			<rect x="624.518" y="1533.309" transform="matrix(-1 -1.224647e-16 1.224647e-16 -1 1256.8898 3083.2617)" style="fill:#F9B233;" width="7.854" height="16.645"/>
		
			<rect x="594.571" y="1533.309" transform="matrix(-1 -1.224647e-16 1.224647e-16 -1 1196.9971 3083.2617)" style="fill:#F9B233;" width="7.854" height="16.645"/>
		
			<rect x="564.625" y="1533.309" transform="matrix(-1 -1.224647e-16 1.224647e-16 -1 1137.1044 3083.2617)" style="fill:#F9B233;" width="7.854" height="16.645"/>
		
			<rect x="534.679" y="1533.309" transform="matrix(-1 -1.224647e-16 1.224647e-16 -1 1077.2114 3083.2617)" style="fill:#F9B233;" width="7.854" height="16.645"/>
		
			<rect x="637.893" y="1549.953" transform="matrix(-1 -1.224647e-16 1.224647e-16 -1 1283.6398 3116.551)" style="fill:#F9B233;" width="7.854" height="16.645"/>
		
			<rect x="607.946" y="1549.953" transform="matrix(-1 -1.224647e-16 1.224647e-16 -1 1223.7468 3116.551)" style="fill:#F9B233;" width="7.854" height="16.645"/>
		
			<rect x="578" y="1549.953" transform="matrix(-1 -1.224647e-16 1.224647e-16 -1 1163.8541 3116.551)" style="fill:#F9B233;" width="7.854" height="16.645"/>
		
			<rect x="548.053" y="1549.953" transform="matrix(-1 -1.224647e-16 1.224647e-16 -1 1103.9612 3116.551)" style="fill:#F9B233;" width="7.854" height="16.645"/>
		<rect x="553.069" y="1500.019" style="fill:#F9B233;" width="7.854" height="16.645"/>
		<rect x="583.016" y="1500.019" style="fill:#F9B233;" width="7.854" height="16.645"/>
		<rect x="612.962" y="1500.019" style="fill:#F9B233;" width="7.854" height="16.645"/>
		<rect x="642.908" y="1500.019" style="fill:#F9B233;" width="7.854" height="16.645"/>
		<rect x="539.694" y="1516.664" style="fill:#F9B233;" width="7.854" height="16.645"/>
		<rect x="569.641" y="1516.664" style="fill:#F9B233;" width="7.854" height="16.645"/>
		<rect x="599.587" y="1516.664" style="fill:#F9B233;" width="7.854" height="16.645"/>
		<rect x="629.534" y="1516.664" style="fill:#F9B233;" width="7.854" height="16.645"/>
		
			<rect x="634.549" y="1566.598" transform="matrix(-1 -1.224647e-16 1.224647e-16 -1 1276.9521 3149.8406)" style="fill:#F9B233;" width="7.854" height="16.645"/>
		
			<rect x="604.603" y="1566.598" transform="matrix(-1 -1.224647e-16 1.224647e-16 -1 1217.0593 3149.8406)" style="fill:#F9B233;" width="7.854" height="16.645"/>
		
			<rect x="574.656" y="1566.598" transform="matrix(-1 -1.224647e-16 1.224647e-16 -1 1157.1666 3149.8406)" style="fill:#F9B233;" width="7.854" height="16.645"/>
		
			<rect x="544.71" y="1566.598" transform="matrix(-1 -1.224647e-16 1.224647e-16 -1 1097.2738 3149.8406)" style="fill:#F9B233;" width="7.854" height="16.645"/>
		
			<rect x="624.518" y="1583.243" transform="matrix(-1 -1.224647e-16 1.224647e-16 -1 1256.8898 3183.1299)" style="fill:#F9B233;" width="7.854" height="16.645"/>
		
			<rect x="594.571" y="1583.243" transform="matrix(-1 -1.224647e-16 1.224647e-16 -1 1196.9971 3183.1299)" style="fill:#F9B233;" width="7.854" height="16.645"/>
		
			<rect x="564.625" y="1583.243" transform="matrix(-1 -1.224647e-16 1.224647e-16 -1 1137.1044 3183.1299)" style="fill:#F9B233;" width="7.854" height="16.645"/>
		
			<rect x="534.679" y="1583.243" transform="matrix(-1 -1.224647e-16 1.224647e-16 -1 1077.2114 3183.1299)" style="fill:#F9B233;" width="7.854" height="16.645"/>
		
			<rect x="621.174" y="1599.887" transform="matrix(-1 -1.224647e-16 1.224647e-16 -1 1250.2025 3216.4192)" style="fill:#F9B233;" width="7.854" height="16.645"/>
		
			<rect x="591.228" y="1599.887" transform="matrix(-1 -1.224647e-16 1.224647e-16 -1 1190.3097 3216.4192)" style="fill:#F9B233;" width="7.854" height="16.645"/>
		
			<rect x="561.281" y="1599.887" transform="matrix(-1 -1.224647e-16 1.224647e-16 -1 1130.4169 3216.4192)" style="fill:#F9B233;" width="7.854" height="16.645"/>
		
			<rect x="531.335" y="1599.887" transform="matrix(-1 -1.224647e-16 1.224647e-16 -1 1070.524 3216.4192)" style="fill:#F9B233;" width="7.854" height="16.645"/>
		
			<rect x="637.893" y="1616.532" transform="matrix(-1 -1.224647e-16 1.224647e-16 -1 1283.6398 3249.7085)" style="fill:#F9B233;" width="7.854" height="16.645"/>
		
			<rect x="607.946" y="1616.532" transform="matrix(-1 -1.224647e-16 1.224647e-16 -1 1223.7468 3249.7085)" style="fill:#F9B233;" width="7.854" height="16.645"/>
		
			<rect x="578" y="1616.532" transform="matrix(-1 -1.224647e-16 1.224647e-16 -1 1163.8541 3249.7085)" style="fill:#F9B233;" width="7.854" height="16.645"/>
		
			<rect x="548.053" y="1616.532" transform="matrix(-1 -1.224647e-16 1.224647e-16 -1 1103.9612 3249.7085)" style="fill:#F9B233;" width="7.854" height="16.645"/>
		<rect x="522.976" y="1433.441" style="fill:#F39200;" width="131.131" height="16.645"/>
		<rect x="533.007" y="1450.085" style="fill:#F39200;" width="131.131" height="16.645"/>
		<rect x="536.35" y="1466.73" style="fill:#F39200;" width="131.131" height="16.645"/>
		<rect x="519.632" y="1483.375" style="fill:#F39200;" width="131.131" height="16.645"/>
		<rect x="539.694" y="1433.441" style="fill:#F9B233;" width="7.854" height="16.645"/>
		<rect x="569.641" y="1433.441" style="fill:#F9B233;" width="7.854" height="16.645"/>
		<rect x="599.587" y="1433.441" style="fill:#F9B233;" width="7.854" height="16.645"/>
		<rect x="629.534" y="1433.441" style="fill:#F9B233;" width="7.854" height="16.645"/>
		<rect x="549.725" y="1450.085" style="fill:#F9B233;" width="7.854" height="16.645"/>
		<rect x="579.672" y="1450.085" style="fill:#F9B233;" width="7.854" height="16.645"/>
		<rect x="609.618" y="1450.085" style="fill:#F9B233;" width="7.854" height="16.645"/>
		<rect x="639.565" y="1450.085" style="fill:#F9B233;" width="7.854" height="16.645"/>
		<rect x="553.069" y="1466.73" style="fill:#F9B233;" width="7.854" height="16.645"/>
		<rect x="583.015" y="1466.73" style="fill:#F9B233;" width="7.854" height="16.645"/>
		<rect x="612.962" y="1466.73" style="fill:#F9B233;" width="7.854" height="16.645"/>
		<rect x="642.908" y="1466.73" style="fill:#F9B233;" width="7.854" height="16.645"/>
		<rect x="536.35" y="1483.375" style="fill:#F9B233;" width="7.854" height="16.645"/>
		<rect x="566.297" y="1483.375" style="fill:#F9B233;" width="7.854" height="16.645"/>
		<rect x="596.243" y="1483.375" style="fill:#F9B233;" width="7.854" height="16.645"/>
		<rect x="626.19" y="1483.375" style="fill:#F9B233;" width="7.854" height="16.645"/>
		
			<rect x="527.913" y="1632.358" transform="matrix(-1 -1.224647e-16 1.224647e-16 -1 1186.9569 3281.3604)" style="fill:#F39200;" width="131.131" height="16.645"/>
		
			<rect x="518.038" y="1649.003" transform="matrix(-1 -1.224647e-16 1.224647e-16 -1 1167.2068 3314.6499)" style="fill:#F39200;" width="131.131" height="16.645"/>
		
			<rect x="634.471" y="1632.358" transform="matrix(-1 -1.224647e-16 1.224647e-16 -1 1276.7963 3281.3604)" style="fill:#F9B233;" width="7.854" height="16.645"/>
		
			<rect x="604.525" y="1632.358" transform="matrix(-1 -1.224647e-16 1.224647e-16 -1 1216.9034 3281.3604)" style="fill:#F9B233;" width="7.854" height="16.645"/>
		
			<rect x="574.578" y="1632.358" transform="matrix(-1 -1.224647e-16 1.224647e-16 -1 1157.0106 3281.3604)" style="fill:#F9B233;" width="7.854" height="16.645"/>
		
			<rect x="544.632" y="1632.358" transform="matrix(-1 -1.224647e-16 1.224647e-16 -1 1097.1177 3281.3604)" style="fill:#F9B233;" width="7.854" height="16.645"/>
		
			<rect x="624.596" y="1649.003" transform="matrix(-1 -1.224647e-16 1.224647e-16 -1 1257.046 3314.6499)" style="fill:#F9B233;" width="7.854" height="16.645"/>
		
			<rect x="594.649" y="1649.003" transform="matrix(-1 -1.224647e-16 1.224647e-16 -1 1197.1532 3314.6499)" style="fill:#F9B233;" width="7.854" height="16.645"/>
		
			<rect x="564.703" y="1649.003" transform="matrix(-1 -1.224647e-16 1.224647e-16 -1 1137.2604 3314.6499)" style="fill:#F9B233;" width="7.854" height="16.645"/>
		
			<rect x="534.757" y="1649.003" transform="matrix(-1 -1.224647e-16 1.224647e-16 -1 1077.3674 3314.6499)" style="fill:#F9B233;" width="7.854" height="16.645"/>
		
			<rect x="684.684" y="1566.598" transform="matrix(-1 -1.224647e-16 1.224647e-16 -1 1500.4979 3149.8406)" style="fill:#F39200;" width="131.131" height="16.645"/>
		
			<rect x="674.652" y="1583.243" transform="matrix(-1 -1.224647e-16 1.224647e-16 -1 1480.4357 3183.1299)" style="fill:#F39200;" width="131.131" height="16.645"/>
		
			<rect x="671.309" y="1599.887" transform="matrix(-1 -1.224647e-16 1.224647e-16 -1 1473.7483 3216.4192)" style="fill:#F39200;" width="131.13" height="16.645"/>
		
			<rect x="688.027" y="1616.532" transform="matrix(-1 -1.224647e-16 1.224647e-16 -1 1507.1854 3249.7085)" style="fill:#F39200;" width="131.131" height="16.645"/>
		
			<rect x="791.242" y="1566.598" transform="matrix(-1 -1.224647e-16 1.224647e-16 -1 1590.3373 3149.8406)" style="fill:#F9B233;" width="7.854" height="16.645"/>
		
			<rect x="761.295" y="1566.598" transform="matrix(-1 -1.224647e-16 1.224647e-16 -1 1530.4445 3149.8406)" style="fill:#F9B233;" width="7.854" height="16.645"/>
		
			<rect x="731.349" y="1566.598" transform="matrix(-1 -1.224647e-16 1.224647e-16 -1 1470.5515 3149.8406)" style="fill:#F9B233;" width="7.854" height="16.645"/>
		
			<rect x="701.402" y="1566.598" transform="matrix(-1 -1.224647e-16 1.224647e-16 -1 1410.6588 3149.8406)" style="fill:#F9B233;" width="7.854" height="16.645"/>
		
			<rect x="781.21" y="1583.243" transform="matrix(-1 -1.224647e-16 1.224647e-16 -1 1570.2749 3183.1299)" style="fill:#F9B233;" width="7.854" height="16.645"/>
		
			<rect x="751.264" y="1583.243" transform="matrix(-1 -1.224647e-16 1.224647e-16 -1 1510.3821 3183.1299)" style="fill:#F9B233;" width="7.854" height="16.645"/>
		
			<rect x="721.318" y="1583.243" transform="matrix(-1 -1.224647e-16 1.224647e-16 -1 1450.4893 3183.1299)" style="fill:#F9B233;" width="7.854" height="16.645"/>
		
			<rect x="691.371" y="1583.243" transform="matrix(-1 -1.224647e-16 1.224647e-16 -1 1390.5964 3183.1299)" style="fill:#F9B233;" width="7.854" height="16.645"/>
		
			<rect x="777.867" y="1599.887" transform="matrix(-1 -1.224647e-16 1.224647e-16 -1 1563.5874 3216.4192)" style="fill:#F9B233;" width="7.854" height="16.645"/>
		
			<rect x="747.92" y="1599.887" transform="matrix(-1 -1.224647e-16 1.224647e-16 -1 1503.6946 3216.4192)" style="fill:#F9B233;" width="7.854" height="16.645"/>
		
			<rect x="717.974" y="1599.887" transform="matrix(-1 -1.224647e-16 1.224647e-16 -1 1443.8018 3216.4192)" style="fill:#F9B233;" width="7.854" height="16.645"/>
		
			<rect x="688.027" y="1599.887" transform="matrix(-1 -1.224647e-16 1.224647e-16 -1 1383.9089 3216.4192)" style="fill:#F9B233;" width="7.854" height="16.645"/>
		
			<rect x="794.585" y="1616.532" transform="matrix(-1 -1.224647e-16 1.224647e-16 -1 1597.0245 3249.7085)" style="fill:#F9B233;" width="7.854" height="16.645"/>
		
			<rect x="764.639" y="1616.532" transform="matrix(-1 -1.224647e-16 1.224647e-16 -1 1537.1318 3249.7085)" style="fill:#F9B233;" width="7.854" height="16.645"/>
		
			<rect x="734.692" y="1616.532" transform="matrix(-1 -1.224647e-16 1.224647e-16 -1 1477.239 3249.7085)" style="fill:#F9B233;" width="7.854" height="16.645"/>
		
			<rect x="704.746" y="1616.532" transform="matrix(-1 -1.224647e-16 1.224647e-16 -1 1417.3461 3249.7085)" style="fill:#F9B233;" width="7.854" height="16.645"/>
		
			<rect x="684.684" y="1500.019" transform="matrix(-1 -1.224647e-16 1.224647e-16 -1 1500.4979 3016.6831)" style="fill:#F39200;" width="131.131" height="16.645"/>
		
			<rect x="674.652" y="1516.664" transform="matrix(-1 -1.224647e-16 1.224647e-16 -1 1480.4357 3049.9724)" style="fill:#F39200;" width="131.131" height="16.645"/>
		
			<rect x="671.309" y="1533.309" transform="matrix(-1 -1.224647e-16 1.224647e-16 -1 1473.7483 3083.262)" style="fill:#F39200;" width="131.13" height="16.645"/>
		
			<rect x="688.027" y="1549.953" transform="matrix(-1 -1.224647e-16 1.224647e-16 -1 1507.1854 3116.5513)" style="fill:#F39200;" width="131.131" height="16.645"/>
		
			<rect x="791.242" y="1500.019" transform="matrix(-1 -1.224647e-16 1.224647e-16 -1 1590.3373 3016.6831)" style="fill:#F9B233;" width="7.854" height="16.645"/>
		
			<rect x="761.295" y="1500.019" transform="matrix(-1 -1.224647e-16 1.224647e-16 -1 1530.4445 3016.6831)" style="fill:#F9B233;" width="7.854" height="16.645"/>
		
			<rect x="731.349" y="1500.019" transform="matrix(-1 -1.224647e-16 1.224647e-16 -1 1470.5515 3016.6831)" style="fill:#F9B233;" width="7.854" height="16.645"/>
		
			<rect x="701.402" y="1500.019" transform="matrix(-1 -1.224647e-16 1.224647e-16 -1 1410.6588 3016.6831)" style="fill:#F9B233;" width="7.854" height="16.645"/>
		
			<rect x="781.21" y="1516.664" transform="matrix(-1 -1.224647e-16 1.224647e-16 -1 1570.2749 3049.9724)" style="fill:#F9B233;" width="7.854" height="16.645"/>
		
			<rect x="751.264" y="1516.664" transform="matrix(-1 -1.224647e-16 1.224647e-16 -1 1510.3821 3049.9724)" style="fill:#F9B233;" width="7.854" height="16.645"/>
		
			<rect x="721.318" y="1516.664" transform="matrix(-1 -1.224647e-16 1.224647e-16 -1 1450.4893 3049.9724)" style="fill:#F9B233;" width="7.854" height="16.645"/>
		
			<rect x="691.371" y="1516.664" transform="matrix(-1 -1.224647e-16 1.224647e-16 -1 1390.5964 3049.9724)" style="fill:#F9B233;" width="7.854" height="16.645"/>
		
			<rect x="777.867" y="1533.309" transform="matrix(-1 -1.224647e-16 1.224647e-16 -1 1563.5874 3083.262)" style="fill:#F9B233;" width="7.854" height="16.645"/>
		
			<rect x="747.92" y="1533.309" transform="matrix(-1 -1.224647e-16 1.224647e-16 -1 1503.6946 3083.262)" style="fill:#F9B233;" width="7.854" height="16.645"/>
		
			<rect x="717.974" y="1533.309" transform="matrix(-1 -1.224647e-16 1.224647e-16 -1 1443.8018 3083.262)" style="fill:#F9B233;" width="7.854" height="16.645"/>
		
			<rect x="688.027" y="1533.309" transform="matrix(-1 -1.224647e-16 1.224647e-16 -1 1383.9089 3083.262)" style="fill:#F9B233;" width="7.854" height="16.645"/>
		
			<rect x="794.585" y="1549.953" transform="matrix(-1 -1.224647e-16 1.224647e-16 -1 1597.0245 3116.5513)" style="fill:#F9B233;" width="7.854" height="16.645"/>
		
			<rect x="764.639" y="1549.953" transform="matrix(-1 -1.224647e-16 1.224647e-16 -1 1537.1318 3116.5513)" style="fill:#F9B233;" width="7.854" height="16.645"/>
		
			<rect x="734.692" y="1549.953" transform="matrix(-1 -1.224647e-16 1.224647e-16 -1 1477.239 3116.5513)" style="fill:#F9B233;" width="7.854" height="16.645"/>
		
			<rect x="704.746" y="1549.953" transform="matrix(-1 -1.224647e-16 1.224647e-16 -1 1417.3461 3116.5513)" style="fill:#F9B233;" width="7.854" height="16.645"/>
		
			<rect x="684.606" y="1632.358" transform="matrix(-1 -1.224647e-16 1.224647e-16 -1 1500.3419 3281.3604)" style="fill:#F39200;" width="131.13" height="16.645"/>
		
			<rect x="691.352" y="1649.003" transform="matrix(-1 -1.224647e-16 1.224647e-16 -1 1513.8339 3314.6499)" style="fill:#F39200;" width="131.13" height="16.645"/>
		
			<rect x="791.163" y="1632.358" transform="matrix(-1 -1.224647e-16 1.224647e-16 -1 1590.1812 3281.3604)" style="fill:#F9B233;" width="7.854" height="16.645"/>
		
			<rect x="761.217" y="1632.358" transform="matrix(-1 -1.224647e-16 1.224647e-16 -1 1530.2882 3281.3604)" style="fill:#F9B233;" width="7.854" height="16.645"/>
		
			<rect x="731.271" y="1632.358" transform="matrix(-1 -1.224647e-16 1.224647e-16 -1 1470.3955 3281.3604)" style="fill:#F9B233;" width="7.854" height="16.645"/>
		
			<rect x="701.324" y="1632.358" transform="matrix(-1 -1.224647e-16 1.224647e-16 -1 1410.5027 3281.3604)" style="fill:#F9B233;" width="7.854" height="16.645"/>
		
			<rect x="797.909" y="1649.003" transform="matrix(-1 -1.224647e-16 1.224647e-16 -1 1603.6731 3314.6499)" style="fill:#F9B233;" width="7.854" height="16.645"/>
		
			<rect x="767.963" y="1649.003" transform="matrix(-1 -1.224647e-16 1.224647e-16 -1 1543.7803 3314.6499)" style="fill:#F9B233;" width="7.854" height="16.645"/>
		
			<rect x="738.017" y="1649.003" transform="matrix(-1 -1.224647e-16 1.224647e-16 -1 1483.8872 3314.6499)" style="fill:#F9B233;" width="7.854" height="16.645"/>
		
			<rect x="708.07" y="1649.003" transform="matrix(-1 -1.224647e-16 1.224647e-16 -1 1423.9944 3314.6499)" style="fill:#F9B233;" width="7.854" height="16.645"/>
		<rect x="836.811" y="1566.598" style="fill:#F39200;" width="131.131" height="16.645"/>
		<rect x="846.842" y="1583.243" style="fill:#F39200;" width="131.13" height="16.645"/>
		<rect x="850.186" y="1599.887" style="fill:#F39200;" width="131.131" height="16.645"/>
		<rect x="833.467" y="1616.532" style="fill:#F39200;" width="131.131" height="16.645"/>
		<rect x="853.53" y="1566.598" style="fill:#F9B233;" width="7.854" height="16.645"/>
		<rect x="883.476" y="1566.598" style="fill:#F9B233;" width="7.854" height="16.645"/>
		<rect x="913.422" y="1566.598" style="fill:#F9B233;" width="7.854" height="16.645"/>
		<rect x="943.369" y="1566.598" style="fill:#F9B233;" width="7.854" height="16.645"/>
		<rect x="863.561" y="1583.243" style="fill:#F9B233;" width="7.854" height="16.645"/>
		<rect x="893.507" y="1583.243" style="fill:#F9B233;" width="7.854" height="16.645"/>
		<rect x="923.453" y="1583.243" style="fill:#F9B233;" width="7.854" height="16.645"/>
		<rect x="953.4" y="1583.243" style="fill:#F9B233;" width="7.854" height="16.645"/>
		<rect x="866.904" y="1599.887" style="fill:#F9B233;" width="7.854" height="16.645"/>
		<rect x="896.851" y="1599.887" style="fill:#F9B233;" width="7.854" height="16.645"/>
		<rect x="926.797" y="1599.887" style="fill:#F9B233;" width="7.854" height="16.645"/>
		<rect x="956.744" y="1599.887" style="fill:#F9B233;" width="7.854" height="16.645"/>
		<rect x="850.186" y="1616.532" style="fill:#F9B233;" width="7.854" height="16.645"/>
		<rect x="880.132" y="1616.532" style="fill:#F9B233;" width="7.854" height="16.645"/>
		<rect x="910.079" y="1616.532" style="fill:#F9B233;" width="7.854" height="16.645"/>
		<rect x="940.025" y="1616.532" style="fill:#F9B233;" width="7.854" height="16.645"/>
		<rect x="863.483" y="1632.358" style="fill:#F39200;" width="131.13" height="16.645"/>
		<rect x="846.764" y="1649.003" style="fill:#F39200;" width="131.131" height="16.645"/>
		<rect x="880.201" y="1632.358" style="fill:#F9B233;" width="7.854" height="16.645"/>
		<rect x="910.148" y="1632.358" style="fill:#F9B233;" width="7.854" height="16.645"/>
		<rect x="940.094" y="1632.358" style="fill:#F9B233;" width="7.854" height="16.645"/>
		<rect x="970.04" y="1632.358" style="fill:#F9B233;" width="7.854" height="16.645"/>
		<rect x="863.483" y="1649.003" style="fill:#F9B233;" width="7.854" height="16.645"/>
		<rect x="893.429" y="1649.003" style="fill:#F9B233;" width="7.854" height="16.645"/>
		<rect x="923.375" y="1649.003" style="fill:#F9B233;" width="7.854" height="16.645"/>
		<rect x="953.322" y="1649.003" style="fill:#F9B233;" width="7.854" height="16.645"/>
	</g>
</g>
</svg>
